<svg width="37" height="44" viewBox="0 0 37 44" fill="none" xmlns="http://www.w3.org/2000/svg">
<path d="M28.8888 38C28.3614 38 27.8458 38.1564 27.4073 38.4494C26.9688 38.7424 26.627 39.1589 26.4252 39.6462C26.2233 40.1334 26.1705 40.6696 26.2734 41.1869C26.3763 41.7042 26.6303 42.1793 27.0032 42.5523C27.3762 42.9252 27.8513 43.1792 28.3686 43.2821C28.8859 43.385 29.4221 43.3322 29.9093 43.1303C30.3966 42.9285 30.8131 42.5867 31.1061 42.1482C31.3991 41.7097 31.5555 41.1941 31.5555 40.6667C31.5555 39.9594 31.2746 39.2811 30.7745 38.7811C30.2744 38.281 29.5961 38 28.8888 38ZM28.8888 42C28.6251 42 28.3673 41.9218 28.1481 41.7753C27.9288 41.6288 27.7579 41.4205 27.657 41.1769C27.5561 40.9333 27.5297 40.6652 27.5811 40.4065C27.6326 40.1479 27.7596 39.9103 27.946 39.7239C28.1325 39.5374 28.3701 39.4104 28.6287 39.359C28.8874 39.3075 29.1554 39.3339 29.3991 39.4348C29.6427 39.5357 29.851 39.7066 29.9975 39.9259C30.144 40.1452 30.2222 40.403 30.2222 40.6667C30.2222 41.0203 30.0817 41.3594 29.8316 41.6095C29.5816 41.8595 29.2425 42 28.8888 42Z" fill="#232A44"/>
<path d="M14.6667 38C14.1393 38 13.6237 38.1564 13.1851 38.4494C12.7466 38.7424 12.4048 39.1589 12.203 39.6462C12.0012 40.1334 11.9483 40.6696 12.0512 41.1869C12.1541 41.7042 12.4081 42.1793 12.781 42.5523C13.154 42.9252 13.6291 43.1792 14.1464 43.2821C14.6637 43.385 15.1999 43.3322 15.6872 43.1303C16.1744 42.9285 16.5909 42.5867 16.8839 42.1482C17.1769 41.7097 17.3333 41.1941 17.3333 40.6667C17.3333 39.9594 17.0524 39.2811 16.5523 38.7811C16.0522 38.281 15.3739 38 14.6667 38ZM14.6667 42C14.403 42 14.1452 41.9218 13.9259 41.7753C13.7066 41.6288 13.5357 41.4205 13.4348 41.1769C13.3339 40.9333 13.3075 40.6652 13.359 40.4065C13.4104 40.1479 13.5374 39.9103 13.7239 39.7239C13.9103 39.5374 14.1479 39.4104 14.4065 39.359C14.6652 39.3075 14.9333 39.3339 15.1769 39.4348C15.4205 39.5357 15.6288 39.7066 15.7753 39.9259C15.9218 40.1452 16 40.403 16 40.6667C16 41.0203 15.8595 41.3594 15.6095 41.6095C15.3594 41.8595 15.0203 42 14.6667 42Z" fill="#232A44"/>
<path d="M17.04 40.6666H26.6134" stroke="#232A44" stroke-width="2" stroke-linecap="round" stroke-linejoin="round"/>
<path d="M8.0977 20.9423L35.7688 23.1823L32.151 35.3334H11.9999M11.9999 35.3334L7.17325 17.1379C7.07967 16.7508 6.85884 16.4064 6.54615 16.1598C6.23346 15.9132 5.84703 15.7787 5.44881 15.7779L1.33325 15.7778M11.9999 35.3334L10.5688 37.4845C10.3405 37.8199 10.2196 38.2167 10.2221 38.6223C10.2221 39.1645 10.4375 39.6846 10.8209 40.068C11.2044 40.4514 11.7244 40.6668 12.2666 40.6668M17.0399 35.3334C16.9955 35.1556 15.0133 21.5023 15.0133 21.5023M22.071 35.3334C22.071 35.2179 21.9288 22.0623 21.9288 22.0623M27.111 35.3334C27.111 35.2712 28.8888 22.6223 28.8888 22.6223" stroke="#232A44" stroke-width="2" stroke-linecap="round" stroke-linejoin="round"/>
<path d="M10.3911 29.5555H33.8756" stroke="#232A44" stroke-linecap="round" stroke-linejoin="round"/>
<path d="M25.3334 21.7511V23.5289C24.8891 22.1124 23.9127 20.9235 22.6096 20.2122C21.3065 19.501 19.7784 19.323 18.3467 19.7155V16.8711C18.4534 16.8711 18.5511 16.8711 18.6578 16.8711C20.145 16.8681 21.5944 17.3398 22.7951 18.2175C23.9957 19.0952 24.8849 20.3331 25.3334 21.7511ZM18.6578 21.2089C18.5511 21.2089 18.4534 21.2089 18.3467 21.2089V24.0444C18.8264 23.9058 19.3229 23.834 19.8223 23.8311C20.8659 23.8339 21.8896 24.1177 22.7858 24.6526C23.682 25.1875 24.4177 25.9538 24.9156 26.8711H25.3334V26.1244C24.889 24.6976 23.9995 23.4506 22.795 22.566C21.5905 21.6815 20.1344 21.2059 18.64 21.2089H18.6578ZM18.6578 8.10666C18.5511 8.10666 18.4534 8.10666 18.3467 8.10666V10.9067C19.7819 10.5153 21.313 10.697 22.6167 11.4135C23.9204 12.1301 24.8945 13.3252 25.3334 14.7467V13.0133C24.8887 11.5874 23.9988 10.3416 22.7942 9.45849C21.5896 8.57542 20.1336 8.10164 18.64 8.10666H18.6578ZM18.3467 25.6089V26.8711H22.6667C21.4932 26.0259 20.0862 25.5662 18.64 25.5555C18.5334 25.5555 18.4356 25.6 18.3289 25.6089H18.3467ZM18.6578 12.4711C18.5511 12.4711 18.4534 12.4711 18.3467 12.4711V15.28C19.7822 14.8768 21.3185 15.0533 22.6252 15.7714C23.9319 16.4896 24.9043 17.692 25.3334 19.12V17.3422C24.8812 15.9237 23.9883 14.6864 22.7846 13.8103C21.5808 12.9343 20.1289 12.4651 18.64 12.4711H18.6578ZM26.4711 5.42221L22.2667 0.586656C22.2116 0.522737 22.1434 0.471449 22.0667 0.436291C21.99 0.401134 21.9066 0.382935 21.8223 0.382935C21.7379 0.382935 21.6545 0.401134 21.5778 0.436291C21.5011 0.471449 21.4329 0.522737 21.3778 0.586656L17.2 5.42221C17.1614 5.463 17.1357 5.51432 17.1262 5.5697C17.1167 5.62507 17.1238 5.68203 17.1466 5.73337C17.1694 5.78472 17.2069 5.82816 17.2544 5.8582C17.3019 5.88825 17.3572 5.90357 17.4134 5.90221H18.3023V6.56888C19.7402 6.15124 21.2849 6.31738 22.6011 7.03125C23.9174 7.74513 24.8991 8.94917 25.3334 10.3822V8.66666C25.0112 7.63945 24.4578 6.69981 23.7156 5.91999H25.3334V5.99999V5.90221H26.2223C26.2783 5.90314 26.3334 5.888 26.3811 5.85857C26.4288 5.82915 26.4671 5.78667 26.4914 5.73617C26.5157 5.68567 26.5251 5.62926 26.5183 5.57362C26.5116 5.51798 26.489 5.46544 26.4534 5.42221H26.4711Z" fill="#232A44"/>
<path d="M18.3466 26.1333L18.7732 27.7066C18.1177 27.087 17.3144 26.6457 16.4399 26.4248C15.5654 26.2038 14.6488 26.2106 13.7777 26.4444C13.1652 26.6074 12.5892 26.8849 12.0799 27.2622L11.4044 24.6666C11.6508 24.5631 11.9031 24.4741 12.1599 24.3999C13.2518 24.1075 14.4022 24.1141 15.4907 24.419C16.5792 24.724 17.5656 25.3161 18.3466 26.1333ZM9.08435 12.951C8.83045 13.0252 8.58113 13.1143 8.33769 13.2177L9.02213 15.7777C10.0106 15.0551 11.2228 14.7051 12.4443 14.7897C13.6659 14.8743 14.8182 15.3879 15.6977 16.2399L15.2799 14.6577C14.4931 13.8468 13.5038 13.261 12.4145 12.9609C11.3252 12.6608 10.1754 12.6574 9.08435 12.951ZM11.111 20.5955C10.8542 20.6697 10.6019 20.7587 10.3555 20.8622L11.111 23.431C11.6222 23.057 12.1976 22.7798 12.8088 22.6133C13.6797 22.3873 14.5937 22.3853 15.4656 22.6076C16.3375 22.8298 17.139 23.2691 17.7955 23.8844L17.3332 22.311C16.5465 21.4916 15.5532 20.8996 14.458 20.5977C13.3629 20.2957 12.2066 20.295 11.111 20.5955ZM12.3999 28.5066L12.8266 29.9999L17.6266 28.711C16.2493 28.0245 14.6681 27.8664 13.1821 28.2666C12.9259 28.3321 12.6736 28.4122 12.4266 28.5066H12.3999ZM10.0799 16.7733C9.82601 16.8474 9.57669 16.9365 9.33324 17.0399L10.0177 19.6088C10.5289 19.2348 11.1043 18.9576 11.7155 18.791C12.5853 18.5593 13.5001 18.5553 14.3719 18.7795C15.2437 19.0036 16.0431 19.4484 16.6932 20.071L16.2755 18.4888C15.4932 17.6794 14.5089 17.0936 13.4244 16.792C12.3398 16.4904 11.1944 16.4839 10.1066 16.7733H10.0799ZM14.871 9.29771L10.1066 6.05326C10.0437 6.01121 9.97257 5.98301 9.89795 5.97054C9.82333 5.95808 9.74691 5.96163 9.67377 5.98097C9.60063 6.00031 9.53244 6.03498 9.47373 6.0827C9.41502 6.13041 9.36713 6.19007 9.33324 6.25771L6.79991 11.4666C6.77753 11.5128 6.76894 11.5644 6.77516 11.6153C6.78139 11.6662 6.80216 11.7142 6.835 11.7537C6.86784 11.7931 6.91134 11.8222 6.9603 11.8375C7.00926 11.8528 7.06159 11.8536 7.11102 11.8399L7.91102 11.6266L7.99991 11.9644C8.98841 11.2417 10.2005 10.8918 11.4221 10.9764C12.6437 11.0609 13.796 11.5746 14.6755 12.4266L14.0266 9.99104L14.8177 9.77771C14.8674 9.76466 14.9123 9.73751 14.947 9.69952C14.9817 9.66154 15.0046 9.61433 15.0131 9.56361C15.0215 9.51288 15.0151 9.46079 14.9947 9.41361C14.9742 9.36644 14.9405 9.32618 14.8977 9.29771H14.871Z" fill="#232A44"/>
<path d="M28.7821 19.3333C29.4775 19.5872 30.1125 19.9831 30.6466 20.4957C31.1807 21.0084 31.6022 21.6266 31.8843 22.3111L31.3776 23.7778C30.8714 22.7639 29.997 21.9817 28.9332 21.5911C28.174 21.3114 27.351 21.2528 26.5598 21.4222L27.3954 19.12C27.8652 19.1274 28.3318 19.1992 28.7821 19.3333ZM26.2221 22.2133L25.3865 24.5156C26.337 24.3192 27.3258 24.444 28.1978 24.8703C29.0697 25.2967 29.7755 26.0004 30.2043 26.8711L30.7109 25.4845C30.4289 24.8 30.0073 24.1817 29.4732 23.6691C28.9392 23.1564 28.3042 22.7605 27.6087 22.5067C27.161 22.3497 26.695 22.2511 26.2221 22.2133ZM28.4976 15.9911L27.6621 18.2933C28.4527 18.1254 29.2745 18.1808 30.0354 18.4533C31.0992 18.8439 31.9736 19.6261 32.4798 20.64L32.9865 19.2533C32.7044 18.5689 32.2829 17.9506 31.7488 17.438C31.2147 16.9253 30.5797 16.5294 29.8843 16.2756C29.4507 16.1074 28.9961 15.9997 28.5332 15.9556L28.4976 15.9911ZM29.6443 12.8533L28.7554 15.1556C29.7061 14.9561 30.6961 15.0794 31.5687 15.5061C32.4414 15.9328 33.1468 16.6384 33.5732 17.5111L34.0798 16.1245C33.8117 15.442 33.4057 14.8222 32.8872 14.3037C32.3687 13.7853 31.7489 13.3793 31.0665 13.1111C30.6177 12.9582 30.1521 12.8597 29.6798 12.8178L29.6443 12.8533ZM25.0754 25.3867L24.4709 27.0667L29.4843 28.8889L29.5643 28.6489C29.2832 27.9653 28.863 27.3476 28.3305 26.835C27.798 26.3224 27.1648 25.926 26.4709 25.6711C26.0343 25.5029 25.5768 25.3953 25.1109 25.3511L25.0754 25.3867ZM35.8932 13.8311L34.1154 9.27113C34.0928 9.21152 34.0576 9.15747 34.0123 9.11264C33.967 9.06782 33.9125 9.03328 33.8526 9.01136C33.7928 8.98943 33.7289 8.98065 33.6653 8.98559C33.6018 8.99054 33.54 9.0091 33.4843 9.04001L29.2887 11.3333C29.2515 11.353 29.2203 11.3824 29.1986 11.4184C29.1769 11.4544 29.1654 11.4957 29.1654 11.5378C29.1654 11.5799 29.1769 11.6211 29.1986 11.6572C29.2203 11.6932 29.2515 11.7226 29.2887 11.7422L34.2576 13.52C34.451 13.7641 34.6206 14.026 34.7643 14.3022L34.9509 13.7778L35.6087 14.0089C35.6458 14.028 35.6876 14.0363 35.7292 14.0329C35.7708 14.0294 35.8105 14.0142 35.8439 13.9892C35.8773 13.9641 35.903 13.9302 35.918 13.8912C35.933 13.8523 35.9367 13.8099 35.9287 13.7689L35.8932 13.8311Z" fill="#232A44"/>
</svg>
