<svg width="45" height="45" viewBox="0 0 45 45" fill="none" xmlns="http://www.w3.org/2000/svg">
<path d="M4.51555 20.3334L4.35556 20.1823L1.14667 23.3823C0.98111 23.5488 0.888184 23.7741 0.888184 24.0089C0.888184 24.2437 0.98111 24.469 1.14667 24.6356L8.58667 32.0756C8.84103 29.9379 8.60678 27.7703 7.90157 25.7363C7.19636 23.7022 6.0386 21.8548 4.51555 20.3334V20.3334Z" fill="#232A44"/>
<path d="M21.9912 20.1377L24.889 17.2311C25.4997 14.8427 25.4792 12.3367 24.8294 9.95869C24.1795 7.5807 22.9228 5.41245 21.1823 3.66661L21.0135 3.5155L16.2935 8.2355C18.1341 9.61145 19.614 11.413 20.6063 13.4858C21.5986 15.5587 22.0738 17.8411 21.9912 20.1377Z" fill="#232A44"/>
<path d="M19.351 22.7866C19.9595 20.3968 19.9361 17.8898 19.2832 15.5117C18.6302 13.1336 17.3701 10.9662 15.6266 9.22216L15.4666 9.07104L10.7466 13.791C12.5818 15.1654 14.0576 16.963 15.0482 19.0308C16.0387 21.0986 16.5147 23.3752 16.4355 25.6666L19.351 22.7866Z" fill="#232A44"/>
<path d="M31.6444 0.777766L21.3333 1.04443C21.2471 1.04733 21.1636 1.07527 21.0929 1.12483C21.0223 1.1744 20.9676 1.24345 20.9356 1.32356C20.9036 1.40368 20.8955 1.49138 20.9125 1.57598C20.9294 1.66058 20.9707 1.73842 21.0311 1.79999L21.8755 2.63554H21.8311C23.6843 4.01379 25.1739 5.8226 26.1713 7.90564C27.1687 9.98868 27.6438 12.2833 27.5555 14.5911L30.6933 11.4444L31.5289 12.2889C31.5905 12.3493 31.6683 12.3905 31.7529 12.4075C31.8375 12.4245 31.9252 12.4164 32.0053 12.3844C32.0854 12.3523 32.1545 12.2977 32.204 12.227C32.2536 12.1564 32.2815 12.0729 32.2844 11.9867L32.5511 1.66665C32.5511 1.54841 32.5276 1.43135 32.4818 1.32233C32.436 1.21331 32.3689 1.11452 32.2845 1.03175C32.2001 0.948968 32.1 0.883868 31.9901 0.840257C31.8802 0.796646 31.7627 0.775401 31.6444 0.777766Z" fill="#232A44"/>
<path d="M13.7954 28.3334C14.4039 25.9435 14.3805 23.4365 13.7275 21.0584C13.0746 18.6804 11.8145 16.5129 10.0709 14.7689L9.91092 14.6178L5.19092 19.3467C7.02997 20.7236 8.50808 22.5255 9.49881 24.5983C10.4895 26.6711 10.9634 28.953 10.8798 31.2489L13.7954 28.3334Z" fill="#232A44"/>
<path d="M38.8355 37.8622C38.4266 37.8622 37.7866 38.1288 37.7866 39.1777C37.7866 40.2266 38.3466 40.6177 38.7466 40.6177C39.3244 40.6177 39.8844 40.1733 39.8844 39.2311C39.8844 38.2888 39.3422 37.8622 38.8355 37.8622Z" fill="#232A44"/>
<path d="M32.4357 33.2666C32.4357 32.4399 32.0623 31.8977 31.4046 31.8977C30.7468 31.8977 30.3379 32.5377 30.3379 33.231C30.3379 33.9244 30.7468 34.6533 31.3068 34.6533C31.8668 34.6533 32.4357 34.1644 32.4357 33.2666Z" fill="#232A44"/>
<path d="M43.5558 28.3334H27.4047C27.1701 28.3332 26.9378 28.3794 26.7211 28.4694C26.5045 28.5595 26.3078 28.6914 26.1424 28.8578L21.1824 33.8178C20.8519 34.148 20.5896 34.5402 20.4107 34.9718C20.2317 35.4034 20.1396 35.8661 20.1396 36.3334C20.1396 36.8006 20.2317 37.2633 20.4107 37.6949C20.5896 38.1266 20.8519 38.5187 21.1824 38.8489L23.2891 40.9556C23.5435 40.6115 23.7139 40.2128 23.7869 39.7912C23.8893 39.1804 23.7795 38.553 23.4758 38.0134C23.0786 37.8757 22.7431 37.6018 22.5288 37.2403C22.3144 36.8787 22.2351 36.4529 22.3049 36.0384C22.3747 35.624 22.5891 35.2476 22.91 34.9762C23.231 34.7048 23.6377 34.5559 24.058 34.5559C24.4783 34.5559 24.885 34.7048 25.206 34.9762C25.5269 35.2476 25.7413 35.624 25.8111 36.0384C25.8809 36.4529 25.8016 36.8787 25.5872 37.2403C25.3729 37.6018 25.0374 37.8757 24.6402 38.0134C25.5291 40.0489 25.1291 41.1956 24.4091 42.1023L26.1424 43.8356C26.3078 44.002 26.5045 44.134 26.7211 44.224C26.9378 44.314 27.1701 44.3602 27.4047 44.36H43.5558C43.7915 44.36 44.0176 44.2664 44.1843 44.0997C44.351 43.933 44.4447 43.7069 44.4447 43.4712V29.2223C44.4447 28.9865 44.351 28.7604 44.1843 28.5937C44.0176 28.427 43.7915 28.3334 43.5558 28.3334ZM28.5869 33.1156C28.5788 32.7463 28.6474 32.3793 28.7886 32.0379C28.9298 31.6965 29.1403 31.3882 29.4069 31.1324C29.6735 30.8767 29.9903 30.6792 30.3373 30.5523C30.6842 30.4255 31.0538 30.3721 31.4224 30.3956C31.7996 30.3885 32.1742 30.46 32.5222 30.6055C32.8703 30.751 33.1843 30.9673 33.4443 31.2406C33.7043 31.514 33.9045 31.8384 34.0324 32.1933C34.1602 32.5483 34.2128 32.9259 34.1869 33.3023C34.1994 33.6819 34.1335 34.06 33.9934 34.413C33.8533 34.766 33.642 35.0864 33.3726 35.3541C33.1032 35.6218 32.7816 35.8312 32.4277 35.9691C32.0738 36.107 31.6953 36.1705 31.3158 36.1556C30.9334 36.146 30.557 36.0584 30.2097 35.8982C29.8624 35.738 29.5514 35.5086 29.2959 35.2239C29.0404 34.9393 28.8457 34.6055 28.7238 34.2429C28.6019 33.8804 28.5553 33.4968 28.5869 33.1156V33.1156ZM31.3336 42.2712C31.1676 42.2563 31.0092 42.195 30.8764 42.0944C30.7436 41.9938 30.6417 41.858 30.5824 41.7023C30.5231 41.5466 30.5088 41.3774 30.541 41.2139C30.5732 41.0505 30.6507 40.8994 30.7647 40.7778L37.8758 31C37.9628 30.8363 38.09 30.6973 38.2455 30.5962C38.401 30.4951 38.5797 30.4353 38.7647 30.4223C38.9349 30.426 39.1005 30.4786 39.2417 30.5738C39.3829 30.6689 39.4938 30.8026 39.5612 30.959C39.6287 31.1154 39.6497 31.2878 39.622 31.4558C39.5942 31.6238 39.5188 31.7803 39.4047 31.9067L32.2936 41.7556C32.1895 41.915 32.047 42.0457 31.8793 42.1358C31.7116 42.2259 31.5239 42.2724 31.3336 42.2712V42.2712ZM38.7647 42.12C37.058 42.12 36.0358 40.7867 36.0358 39.08C36.0307 38.7119 36.1006 38.3465 36.2413 38.0063C36.382 37.666 36.5906 37.358 36.8542 37.101C37.1179 36.844 37.4312 36.6434 37.7749 36.5114C38.1186 36.3794 38.4856 36.3189 38.8536 36.3334C39.6174 36.3452 40.3452 36.6599 40.877 37.2083C41.4088 37.7568 41.7009 38.494 41.6891 39.2578C41.6773 40.0216 41.3626 40.7495 40.8142 41.2813C40.2657 41.813 39.5285 42.1052 38.7647 42.0934V42.12Z" fill="#232A44"/>
<path d="M31.111 11.2578C31.0895 11.201 31.0567 11.1493 31.0144 11.1057C30.9722 11.0621 30.9215 11.0277 30.8655 11.0045C30.8094 10.9812 30.7492 10.9697 30.6885 10.9706C30.6279 10.9716 30.568 10.9849 30.5127 11.0098C30.4574 11.0347 30.4078 11.0707 30.3669 11.1156C30.326 11.1604 30.2947 11.2131 30.275 11.2705C30.2553 11.3279 30.2475 11.3887 30.2522 11.4492C30.2568 11.5097 30.2738 11.5686 30.3021 11.6222C31.271 13.7911 32.0265 16.8667 30.1154 19.2133L30.0532 19.2844C29.6404 19.7894 29.1332 20.209 28.5599 20.52C29.3828 19.4056 29.9172 18.105 30.1158 16.734C30.3143 15.363 30.1706 13.9643 29.6977 12.6622C29.6738 12.6092 29.6395 12.5614 29.5968 12.5218C29.5542 12.4823 29.504 12.4516 29.4494 12.4317C29.3947 12.4118 29.3365 12.4031 29.2784 12.4061C29.2203 12.409 29.1634 12.4236 29.111 12.4489C29.0055 12.4992 28.9234 12.5883 28.882 12.6976C28.8406 12.8069 28.843 12.928 28.8888 13.0356C28.8888 13.0889 30.6665 17.0711 26.791 21.3111C26.2747 21.4867 25.7495 21.6351 25.2177 21.7556C24.6577 21.9067 24.0799 22.0489 23.511 22.2444C21.8212 22.8029 20.3379 23.8557 19.2532 25.2667C18.7072 25.9822 18.3108 26.8004 18.0879 27.6724C17.8649 28.5444 17.8199 29.4524 17.9554 30.3422C17.9991 30.6436 18.0675 30.9409 18.1599 31.2311C16.6043 35.32 16.7999 40.8311 20.2488 43.0889C20.871 43.5219 21.6065 43.763 22.3643 43.7822C22.8607 43.7848 23.3498 43.6626 23.7865 43.4267C24.3939 43.0564 24.8934 42.533 25.2351 41.9091C25.5767 41.2851 25.7485 40.5823 25.7332 39.8711C25.7243 39.0243 25.4856 38.1958 25.0426 37.4741C24.5995 36.7524 23.9688 36.1645 23.2177 35.7733C23.0746 35.8366 22.9508 35.9365 22.8587 36.0629C22.7667 36.1893 22.7096 36.3378 22.6932 36.4933C23.3297 36.8015 23.868 37.2806 24.2478 37.8771C24.6277 38.4736 24.8342 39.164 24.8443 39.8711C24.862 40.4269 24.7354 40.9778 24.4768 41.4701C24.2182 41.9624 23.8365 42.3792 23.3688 42.68C22.9421 42.8908 22.4639 42.9744 21.991 42.9208C21.5182 42.8672 21.0708 42.6787 20.7021 42.3778C17.8932 40.5378 17.5554 36.1556 18.631 32.52C19.3308 33.8357 20.3369 34.9638 21.5643 35.8089C21.8623 35.6987 22.1218 35.5041 22.311 35.2489C20.8433 34.3011 19.7089 32.918 19.0665 31.2933C20.3865 28.3622 22.4828 25.8478 25.1288 24.0222C25.8989 23.4475 26.6185 22.8082 27.2799 22.1111L27.7865 21.9067C28.9507 21.4711 29.9847 20.7461 30.791 19.8C32.5243 17.6667 32.631 14.6978 31.111 11.2578ZM24.6221 23.2222C22.1815 24.9223 20.1749 27.1725 18.7643 29.7911C18.665 28.359 19.0846 26.9391 19.9465 25.7911C20.9362 24.5436 22.272 23.616 23.7865 23.1244C24.3021 22.9467 24.8532 22.8044 25.3777 22.6711C25.1377 22.8311 24.8888 23 24.6221 23.2222Z" fill="#232A44"/>
</svg>
