<svg width="48" height="41" viewBox="0 0 48 41" fill="none" xmlns="http://www.w3.org/2000/svg">
<path d="M20.2223 15.88C19.9992 15.8845 19.7766 15.9023 19.5557 15.9333V18.1733C20.0517 17.9806 20.5791 17.8811 21.1112 17.88C21.8699 17.8822 22.6153 18.0786 23.2766 18.4505C23.9379 18.8224 24.493 19.3573 24.889 20.0044V18.6267C24.4272 17.7939 23.7508 17.1 22.9302 16.617C22.1095 16.134 21.1746 15.8795 20.2223 15.88V15.88Z" fill="#232A44"/>
<path d="M20.2223 19.2223C19.9992 19.2268 19.7766 19.2446 19.5557 19.2756V21.5156C20.0517 21.3229 20.5791 21.2234 21.1112 21.2223C21.869 21.2236 22.6139 21.4187 23.2752 21.7889C23.9364 22.1592 24.4919 22.6924 24.889 23.3379V21.9601C24.426 21.129 23.7492 20.4369 22.9286 19.9555C22.1081 19.4741 21.1737 19.221 20.2223 19.2223Z" fill="#232A44"/>
<path d="M19.5557 22.6V23.88H23.7423C22.7609 23.0144 21.4954 22.5399 20.1868 22.5467C19.9756 22.5526 19.7649 22.5704 19.5557 22.6V22.6Z" fill="#232A44"/>
<path d="M20.2223 12.5468C19.9992 12.5513 19.7766 12.5691 19.5557 12.6001V14.8401C20.0517 14.6473 20.5791 14.5479 21.1112 14.5468C21.8699 14.549 22.6153 14.7454 23.2766 15.1173C23.9379 15.4891 24.493 16.0241 24.889 16.6712V15.2934C24.4272 14.4607 23.7508 13.7668 22.9302 13.2838C22.1095 12.8008 21.1746 12.5463 20.2223 12.5468V12.5468Z" fill="#232A44"/>
<path d="M20.2223 9.21338C19.9992 9.2179 19.7766 9.23571 19.5557 9.26671V11.5067C20.0523 11.317 20.5796 11.2206 21.1112 11.2223C21.869 11.2236 22.6139 11.4186 23.2752 11.7889C23.9364 12.1592 24.4919 12.6924 24.889 13.3378V11.96C24.4272 11.1273 23.7508 10.4334 22.9302 9.95041C22.1095 9.4674 21.1746 9.21292 20.2223 9.21338V9.21338Z" fill="#232A44"/>
<path d="M25.7779 7.50671L22.5601 3.81782C22.5184 3.76903 22.4666 3.72986 22.4083 3.703C22.35 3.67614 22.2865 3.66223 22.2223 3.66223C22.1581 3.66223 22.0947 3.67614 22.0364 3.703C21.9781 3.72986 21.9263 3.76903 21.8846 3.81782L18.6668 7.50671C18.637 7.53878 18.6174 7.57893 18.6103 7.62212C18.6033 7.66531 18.6091 7.70962 18.6272 7.7495C18.6452 7.78937 18.6746 7.82303 18.7117 7.84625C18.7488 7.86947 18.7919 7.88123 18.8357 7.88004H19.5557V8.17338C20.0517 7.98062 20.5791 7.88117 21.1112 7.88004C21.8699 7.88228 22.6154 8.07868 23.2766 8.45055C23.9379 8.82243 24.493 9.35738 24.889 10.0045V7.88004H25.5823C25.6283 7.88744 25.6755 7.88019 25.7172 7.85932C25.7588 7.83845 25.7929 7.80502 25.8145 7.76375C25.8361 7.72248 25.8442 7.67546 25.8376 7.62933C25.8311 7.58321 25.8102 7.54031 25.7779 7.50671Z" fill="#232A44"/>
<path d="M6.95996 18.1201L7.71552 21.0001C7.98825 20.4264 8.38221 19.9186 8.87023 19.512C9.35824 19.1053 9.92868 18.8093 10.5422 18.6445C11.2138 18.4696 11.917 18.4544 12.5955 18.6001L12.1777 17.0179C11.2019 16.702 10.1556 16.6742 9.16441 16.9379C8.34538 17.1494 7.58927 17.5548 6.95996 18.1201V18.1201Z" fill="#232A44"/>
<path d="M5.2356 11.6756L5.99115 14.5111C6.26388 13.9374 6.65785 13.4297 7.14586 13.023C7.63387 12.6163 8.20432 12.3204 8.81782 12.1556C9.49244 11.9916 10.1965 11.9916 10.8712 12.1556L10.4445 10.5645C9.552 10.2816 8.60076 10.2386 7.68641 10.4399C6.77205 10.6412 5.92679 11.0796 5.2356 11.7111V11.6756Z" fill="#232A44"/>
<path d="M6.09766 14.8934L6.85321 17.7289C7.12987 17.1589 7.52521 16.6546 8.01273 16.2499C8.50025 15.8451 9.06867 15.5493 9.67988 15.3823C10.3509 15.2037 11.055 15.1884 11.7332 15.3378L11.3065 13.7556C10.4157 13.4641 9.46309 13.4159 8.54734 13.616C7.63158 13.816 6.78587 14.257 6.09766 14.8934V14.8934Z" fill="#232A44"/>
<path d="M7.82227 21.3378L8.57782 24.1734C8.85055 23.5997 9.24452 23.092 9.73253 22.6853C10.2205 22.2786 10.791 21.9826 11.4045 21.8178C12.0791 21.6539 12.7832 21.6539 13.4578 21.8178L13.04 20.2267C12.0676 19.8991 11.0214 19.859 10.0267 20.1112C9.20165 20.3312 8.44416 20.7527 7.82227 21.3378V21.3378Z" fill="#232A44"/>
<path d="M8.68433 24.5556L9.1021 26.12L14.2221 24.7334L13.8665 23.4089C12.9778 23.131 12.0318 23.0907 11.1227 23.2918C10.2135 23.493 9.37285 23.9287 8.68433 24.5556V24.5556Z" fill="#232A44"/>
<path d="M10.8534 8.69775L6.80896 5.96886C6.75651 5.93298 6.69698 5.90876 6.63438 5.89785C6.57178 5.88693 6.50756 5.88956 6.44606 5.90556C6.38457 5.92157 6.32722 5.95058 6.27788 5.99063C6.22854 6.03069 6.18837 6.08085 6.16007 6.13775L4.03563 10.5289C4.0138 10.5661 4.00379 10.6091 4.00691 10.6521C4.01002 10.6952 4.02613 10.7363 4.0531 10.77C4.08006 10.8037 4.11662 10.8284 4.15794 10.8409C4.19926 10.8534 4.24339 10.8531 4.28452 10.84L4.96007 10.6622L5.12896 11.2933C5.26716 11.0076 5.43394 10.7366 5.62674 10.4844L10.7823 9.09775C10.8241 9.08746 10.8619 9.06527 10.8913 9.03388C10.9207 9.00248 10.9404 8.96323 10.9479 8.92088C10.9555 8.87853 10.9505 8.8349 10.9338 8.7953C10.917 8.75569 10.8891 8.7218 10.8534 8.69775V8.69775Z" fill="#232A44"/>
<path d="M30.9244 19.4801C30.8756 19.4664 30.828 19.4486 30.7822 19.4268L29.8933 21.3556C30.2401 21.4203 30.5775 21.5278 30.8978 21.6756C31.7879 22.0955 32.5135 22.7991 32.9607 23.6758C33.408 24.5526 33.5515 25.553 33.3689 26.5201L33.9022 25.3734C34.1397 24.1994 33.9752 22.9796 33.435 21.9105C32.8948 20.8414 32.0105 19.9853 30.9244 19.4801Z" fill="#232A44"/>
<path d="M32.3377 16.4578L32.1866 16.4133L31.2888 18.3333C31.6346 18.4021 31.9715 18.5094 32.2933 18.6533C33.1851 19.0718 33.9126 19.7747 34.3615 20.6516C34.8104 21.5284 34.9552 22.5296 34.7733 23.4978L35.3066 22.3511C35.5448 21.1781 35.3815 19.9591 34.843 18.8902C34.3045 17.8212 33.4221 16.9645 32.3377 16.4578Z" fill="#232A44"/>
<path d="M33.7777 13.4444C33.7319 13.4226 33.6843 13.4048 33.6355 13.3911L32.7466 15.3111C33.0923 15.3799 33.4292 15.4872 33.751 15.6311C34.6412 16.051 35.3668 16.7545 35.814 17.6313C36.2612 18.508 36.4048 19.5084 36.2221 20.4756L36.7555 19.3378C36.993 18.1638 36.8284 16.944 36.2882 15.8749C35.7481 14.8058 34.8637 13.9497 33.7777 13.4444Z" fill="#232A44"/>
<path d="M35.1555 10.4223L35.0044 10.3334L34.1155 12.2534C34.4612 12.3221 34.7981 12.4295 35.1199 12.5734C36.0152 12.9944 36.7445 13.7022 37.1921 14.5845C37.6397 15.4669 37.7801 16.4733 37.591 17.4445L38.1155 16.3067C38.3522 15.1361 38.1892 13.9199 37.6525 12.8529C37.1158 11.786 36.2365 10.93 35.1555 10.4223V10.4223Z" fill="#232A44"/>
<path d="M40.9688 12.2355L39.6354 7.5422C39.6179 7.48144 39.5876 7.42512 39.5466 7.377C39.5056 7.32887 39.4548 7.29005 39.3976 7.26313C39.3404 7.2362 39.2781 7.2218 39.2149 7.22087C39.1517 7.21995 39.089 7.23252 39.031 7.25776L34.5865 9.25776C34.549 9.27595 34.5173 9.30436 34.4951 9.33974C34.4729 9.37511 34.4612 9.41601 34.4612 9.45776C34.4612 9.4995 34.4729 9.5404 34.4951 9.57578C34.5173 9.61115 34.549 9.63956 34.5865 9.65776L38.5599 11.5066C39.0406 12.4011 39.2006 13.4331 39.0132 14.4311L39.9999 12.2089L40.631 12.5022C40.6702 12.532 40.7182 12.548 40.7675 12.5475C40.8168 12.5471 40.8645 12.5302 40.9032 12.4997C40.9418 12.4692 40.9693 12.4267 40.9812 12.3788C40.993 12.331 40.9887 12.2806 40.9688 12.2355Z" fill="#232A44"/>
<path d="M34.0444 29C33.6999 29.0002 33.3628 28.9004 33.074 28.7126C32.7852 28.5248 32.5572 28.2572 32.4177 27.9422L29.3333 21V40.5556H42.6666C42.9023 40.5556 43.1284 40.4619 43.2951 40.2952C43.4618 40.1285 43.5555 39.9024 43.5555 39.6667V29H34.0444Z" fill="#232A44"/>
<path d="M28.4443 23L26.2488 27.9422C26.1093 28.2572 25.8813 28.5248 25.5925 28.7126C25.3037 28.9004 24.9666 29.0002 24.6221 29H4.44434V39.6667C4.44434 39.9024 4.53799 40.1285 4.70469 40.2952C4.87138 40.4619 5.09748 40.5556 5.33322 40.5556H28.4443V23Z" fill="#232A44"/>
<path d="M24.4 28.1111H0.799992C0.721634 28.11 0.644962 28.0882 0.577748 28.0479C0.510534 28.0076 0.455169 27.9503 0.417265 27.8817C0.37936 27.8131 0.360265 27.7357 0.361915 27.6574C0.363565 27.579 0.385901 27.5025 0.426658 27.4356L4.44444 21H29.3333L25.1467 27.6933C25.0674 27.8202 24.9574 27.9249 24.8269 27.998C24.6964 28.071 24.5495 28.1099 24.4 28.1111V28.1111Z" fill="#232A44"/>
<path d="M34.2666 28.1111H47.1999C47.2783 28.11 47.3549 28.0882 47.4222 28.0479C47.4894 28.0076 47.5447 27.9503 47.5826 27.8817C47.6205 27.8131 47.6396 27.7357 47.638 27.6574C47.6363 27.579 47.614 27.5025 47.5733 27.4356L43.5555 21H29.3333L33.5199 27.6933C33.5992 27.8202 33.7092 27.9249 33.8397 27.998C33.9702 28.071 34.117 28.1099 34.2666 28.1111Z" fill="#232A44"/>
<path d="M40.1777 20.1112L45.1999 15.08C45.2424 15.0401 45.2763 14.992 45.2995 14.9384C45.3226 14.8849 45.3346 14.8272 45.3346 14.7689C45.3346 14.7106 45.3226 14.6529 45.2995 14.5994C45.2763 14.5459 45.2424 14.4977 45.1999 14.4578L43.9466 13.1956C43.862 13.1136 43.7488 13.0677 43.631 13.0677C43.5132 13.0677 43.4 13.1136 43.3154 13.1956L36.4443 20.1112H40.1777Z" fill="#232A44"/>
<path d="M19.3955 20.1112L16.9689 6.3245C16.9473 6.20918 16.8809 6.10709 16.7844 6.04049C16.6878 5.97388 16.5688 5.94816 16.4533 5.96894L14.6755 6.27116C14.5597 6.29286 14.4569 6.35883 14.3888 6.45507C14.3208 6.55131 14.2929 6.67027 14.3111 6.78672L16.6578 20.1201L19.3955 20.1112Z" fill="#232A44"/>
<path d="M13.7498 8.8441L12.8816 9.03467L15.9308 22.9262L16.799 22.7356L13.7498 8.8441Z" fill="#232A44"/>
<path d="M33.6979 5.48003L31.5645 1.08892C31.5362 1.03203 31.4961 0.981858 31.4467 0.941805C31.3974 0.901751 31.34 0.872743 31.2786 0.856737C31.2171 0.840731 31.1528 0.838098 31.0902 0.849017C31.0276 0.859937 30.9681 0.884153 30.9157 0.920034L26.8801 3.65781C26.8435 3.67968 26.8144 3.712 26.7963 3.75061C26.7783 3.78921 26.7722 3.83233 26.7789 3.87441C26.7856 3.91649 26.8048 3.9556 26.8339 3.98671C26.863 4.01781 26.9008 4.03948 26.9423 4.04892L27.6179 4.23559L25.7779 11.0978C25.747 11.211 25.7389 11.3293 25.7539 11.4457C25.769 11.5621 25.807 11.6743 25.8656 11.776C25.9243 11.8776 26.0025 11.9666 26.0958 12.0379C26.189 12.1092 26.2955 12.1612 26.409 12.1911L28.4712 12.7423L28.4268 12.8134C28.1743 13.2392 27.9715 13.6925 27.8223 14.1645C27.6866 14.6883 27.6788 15.2371 27.7995 15.7646C27.9201 16.292 28.1657 16.7828 28.5157 17.1956L28.8179 16.9289C28.5836 16.562 28.4334 16.1477 28.3781 15.7159C28.3228 15.284 28.3637 14.8453 28.4979 14.4311C28.6944 14.0113 28.9326 13.6122 29.209 13.24L29.3334 13L30.6757 13.3556L28.7645 20.4667H29.6534L33.1112 7.55115L32.2223 7.32003L32.6757 5.60448L33.3512 5.78226C33.3913 5.82823 33.448 5.8564 33.5088 5.86056C33.5697 5.86473 33.6297 5.84456 33.6757 5.80448C33.7216 5.7644 33.7498 5.7077 33.754 5.64686C33.7581 5.58601 33.738 5.52601 33.6979 5.48003V5.48003Z" fill="#232A44"/>
</svg>
