<svg width="47" height="46" viewBox="0 0 47 46" fill="none" xmlns="http://www.w3.org/2000/svg">
<path d="M28.8892 26.4445C28.8901 27.9643 28.6098 29.4711 28.0625 30.8889H42.6669C42.9027 30.8889 43.1288 30.7953 43.2955 30.6286C43.4622 30.4619 43.5558 30.2358 43.5558 30V22.8889H28.3647C28.7117 24.0423 28.8883 25.2401 28.8892 26.4445V26.4445Z" fill="#232A44"/>
<path d="M46.6403 14.0445C46.5283 10.9798 45.2035 8.08506 42.9572 5.99715C40.7109 3.90924 37.7273 2.79918 34.6625 2.91116C31.5978 3.02314 28.7031 4.34799 26.6152 6.59426C24.5273 8.84053 23.4172 11.8242 23.5292 14.8889C23.5302 15.3676 23.5628 15.8457 23.627 16.3201C25.6301 17.7357 27.1701 19.7118 28.0536 22.0001H43.7603C43.9006 22.0004 44.0389 21.9676 44.1641 21.9042C44.2892 21.8409 44.3976 21.7489 44.4803 21.6356C46.0731 19.4392 46.8381 16.7504 46.6403 14.0445V14.0445Z" fill="#232A44"/>
<path d="M31.3692 1.19116C30.2232 0.745017 28.9852 0.587078 27.7639 0.731215C26.5426 0.875353 25.3754 1.31716 24.3648 2.01783C22.3689 3.44188 21.0197 5.59985 20.6136 8.01783C20.219 10.3923 20.528 12.8303 21.5025 15.0312V15.1023C21.9509 15.3085 22.3871 15.54 22.8092 15.7956C22.6225 15.4312 22.4448 15.0667 22.2848 14.6845C21.3805 12.6428 21.0872 10.3827 21.4403 8.17783C21.8264 5.98257 23.0665 4.0297 24.8892 2.74672C25.7786 2.13222 26.8045 1.74387 27.8779 1.61531C28.9513 1.48675 30.0398 1.62186 31.0492 2.00894C32.0295 2.42811 32.8654 3.12567 33.4531 4.01522C34.0409 4.90476 34.3548 5.9472 34.3559 7.01338H35.2448C35.2483 5.76814 34.8818 4.54991 34.1918 3.51331C33.5018 2.47671 32.5194 1.66847 31.3692 1.19116V1.19116Z" fill="#232A44"/>
<path d="M5.84907 32.3734C3.31528 29.937 1.84612 26.5985 1.76122 23.0844C1.67633 19.5703 2.98256 16.1649 5.39574 13.6089C6.41796 12.5245 8.50685 10.72 11.1735 10.72H11.2357C11.798 10.6907 12.3603 10.7773 12.8876 10.9745C13.415 11.1716 13.8962 11.4751 14.3013 11.8661C14.7065 12.257 15.0269 12.7271 15.2427 13.2471C15.4585 13.7672 15.565 14.326 15.5557 14.8889H16.4446C16.4446 11.4489 13.778 9.84893 11.2446 9.82227C8.24018 9.82227 5.9113 11.7956 4.74685 12.9956C3.33216 14.4941 2.26001 16.2821 1.60462 18.2359C0.949235 20.1896 0.726265 22.2625 0.951148 24.311C1.17603 26.3594 1.84339 28.3346 2.90704 30.0996C3.97069 31.8647 5.40521 33.3775 7.1113 34.5334C6.62084 33.8564 6.19807 33.133 5.84907 32.3734V32.3734Z" fill="#232A44"/>
<path d="M25.7782 37.8845V38.9334C26.1937 39.2783 26.5021 39.7348 26.6671 40.249C26.8173 40.6208 26.8817 41.0216 26.8555 41.4218C26.8294 41.8219 26.7133 42.211 26.516 42.5601C25.6271 44.089 23.5737 44.489 21.6715 44.6756C16.1872 45.2178 10.6646 45.2535 5.17375 44.7823L5.09375 45.6712C7.67153 45.8934 10.2671 46.009 12.8626 46.009C15.8315 46.009 18.8093 45.8579 21.7515 45.5734C23.7515 45.3779 26.196 44.9067 27.2804 43.0223C27.7549 42.1402 27.8634 41.1069 27.5823 40.1455C27.3012 39.1842 26.6532 38.372 25.7782 37.8845V37.8845Z" fill="#232A44"/>
<path d="M8 34.4445H24.8889V41.5556C24.8889 41.7913 24.7952 42.0174 24.6285 42.1841C24.4618 42.3508 24.2357 42.4445 24 42.4445H8.88889C8.65314 42.4445 8.42705 42.3508 8.26035 42.1841C8.09365 42.0174 8 41.7913 8 41.5556V34.4445Z" fill="#232A44"/>
<path d="M16 14.8889C13.1721 15.0172 10.4875 16.1705 8.44771 18.1334C6.40791 20.0963 5.15238 22.7346 4.9156 25.5556C4.7173 28.2808 5.49561 30.9875 7.11116 33.1911C7.19391 33.3044 7.30228 33.3964 7.42741 33.4598C7.55255 33.5231 7.6909 33.556 7.83116 33.5556H25.0934C25.2329 33.557 25.3707 33.5255 25.4958 33.4637C25.6209 33.402 25.7297 33.3116 25.8134 33.2C27.0812 31.444 27.83 29.3669 27.9743 27.2058C28.1186 25.0447 27.6526 22.8865 26.6295 20.9775C25.6064 19.0685 24.0674 17.4854 22.1879 16.4088C20.3085 15.3323 18.1644 14.8056 16 14.8889V14.8889Z" fill="#232A44"/>
</svg>
