<svg width="45" height="46" viewBox="0 0 45 46" fill="none" xmlns="http://www.w3.org/2000/svg">
<path d="M12.0533 35.9467C10.6515 34.7452 9.02208 33.8383 7.26222 33.2801C5.59535 32.583 3.80676 32.2235 2 32.2223V33.1112C3.69345 33.1112 5.37015 33.4465 6.93333 34.0978C8.41723 34.8621 9.7322 35.9171 10.8 37.2001C11.8182 38.4119 12.5859 39.8137 13.0589 41.3242C13.5319 42.8346 13.7007 44.4239 13.5556 46.0001H17.1111C16.972 44.0738 16.4535 42.1939 15.5855 40.4687C14.7175 38.7434 13.5171 37.2066 12.0533 35.9467V35.9467Z" fill="#232A44"/>
<path d="M10.6222 16.4889C8.59502 13.6889 6.28345 11.1063 3.72446 8.78223L3.12891 9.44C5.68549 11.7671 7.99411 14.3527 10.0178 17.1556C11.8872 19.996 13.457 23.0225 14.7022 26.1867C17.1711 32.4889 18.2944 39.2379 18 46H21.5556C21.2619 38.8653 19.4785 31.871 16.32 25.4667C14.7432 22.2812 12.8333 19.2718 10.6222 16.4889V16.4889Z" fill="#232A44"/>
<path d="M28.489 13.1823C29.3364 9.62673 30.3172 6.09785 31.4312 2.59562L30.5424 2.32007C29.4046 5.87562 28.412 9.44599 27.5646 13.0312C24.5852 23.7851 22.867 34.8491 22.4446 46.0001H26.0001C25.5509 35.0012 26.3862 23.9876 28.489 13.1823V13.1823Z" fill="#232A44"/>
<path d="M42.6045 26.4445L42.2934 25.6178C40.2706 26.3863 38.374 27.4529 36.6667 28.7822C34.7954 30.0472 33.1288 31.591 31.7245 33.36C28.8601 36.9809 27.1726 41.3918 26.8889 46H30.4445C30.1464 41.9385 31.102 37.8833 33.1822 34.3822C34.2394 32.5962 35.5577 30.9783 37.0934 29.5822C38.759 28.2604 40.6177 27.2022 42.6045 26.4445Z" fill="#232A44"/>
<path d="M9.55565 28.5511C9.63494 28.2449 9.60355 27.9206 9.46703 27.6353C9.33051 27.35 9.09763 27.1221 8.80946 26.9917C8.52129 26.8614 8.19634 26.837 7.89194 26.9228C7.58753 27.0087 7.32322 27.1993 7.14563 27.461C6.96804 27.7227 6.88857 28.0387 6.92125 28.3533C6.95392 28.6679 7.09664 28.9609 7.32423 29.1805C7.55182 29.4001 7.84965 29.5323 8.16521 29.5538C8.48076 29.5752 8.79375 29.4846 9.04898 29.2978C11.3612 31.4217 13.2065 34.0034 14.4674 36.8788C15.7283 39.7541 16.3774 42.8603 16.3734 46H17.2623C17.2666 42.7148 16.5831 39.4651 15.2558 36.4599C13.9285 33.4547 11.9868 30.7607 9.55565 28.5511Z" fill="#232A44"/>
<path d="M12.72 27.7512L13.4755 27.2889C11.7261 24.4476 9.57663 21.8731 7.0933 19.6445C7.15808 19.4896 7.19132 19.3234 7.19108 19.1556C7.19108 18.8919 7.11288 18.6341 6.96637 18.4148C6.81987 18.1956 6.61163 18.0247 6.36799 17.9238C6.12436 17.8228 5.85627 17.7964 5.59763 17.8479C5.33899 17.8993 5.10141 18.0263 4.91494 18.2128C4.72847 18.3993 4.60148 18.6368 4.55003 18.8955C4.49859 19.1541 4.52499 19.4222 4.62591 19.6658C4.72683 19.9095 4.89772 20.1177 5.11699 20.2642C5.33625 20.4107 5.59404 20.4889 5.85775 20.4889C6.08585 20.4873 6.30957 20.426 6.50664 20.3112C8.92387 22.4803 11.0164 24.986 12.72 27.7512V27.7512Z" fill="#232A44"/>
<path d="M17.3868 4.62223C17.6522 4.45107 17.8488 4.19178 17.9419 3.88999C18.035 3.5882 18.0188 3.26323 17.8959 2.97225C17.7731 2.68127 17.5516 2.44293 17.2704 2.29914C16.9892 2.15535 16.6663 2.11534 16.3585 2.18613C16.0507 2.25693 15.7777 2.43399 15.5876 2.68619C15.3975 2.93838 15.3024 3.24955 15.319 3.56495C15.3357 3.88034 15.463 4.17977 15.6786 4.41055C15.8942 4.64132 16.1843 4.78867 16.4979 4.82667L16.7645 5.89334C19.9514 19.024 21.5598 32.4881 21.5557 46H22.4445C22.4597 32.4171 20.8512 18.8811 17.6534 5.68001L17.3868 4.62223Z" fill="#232A44"/>
<path d="M16.6667 17.1911C16.6667 16.9274 16.5885 16.6696 16.442 16.4504C16.2955 16.2311 16.0872 16.0602 15.8436 15.9593C15.5999 15.8584 15.3319 15.832 15.0732 15.8834C14.8146 15.9349 14.577 16.0618 14.3905 16.2483C14.2041 16.4348 14.0771 16.6724 14.0256 16.931C13.9742 17.1896 14.0006 17.4577 14.1015 17.7014C14.2024 17.945 14.3733 18.1532 14.5926 18.2997C14.8118 18.4463 15.0696 18.5245 15.3333 18.5245C16.5231 21.5666 17.509 24.6846 18.2844 27.8578L19.1733 27.6533C18.3901 24.4405 17.3923 21.2838 16.1867 18.2045C16.3364 18.0813 16.4571 17.9267 16.54 17.7515C16.623 17.5763 16.6663 17.385 16.6667 17.1911V17.1911Z" fill="#232A44"/>
<path d="M38.64 16.8445C38.2864 16.8445 37.9472 16.985 37.6972 17.235C37.4471 17.4851 37.3067 17.8242 37.3067 18.1778C37.3085 18.3845 37.3571 18.5881 37.4489 18.7734C33.5493 22.8661 30.6047 27.7717 28.8267 33.1378L29.7155 33.4223C31.4505 28.1815 34.3219 23.3888 38.1244 19.3867C38.2995 19.4694 38.4908 19.512 38.6844 19.5111C39.0381 19.5111 39.3772 19.3707 39.6272 19.1206C39.8773 18.8706 40.0178 18.5314 40.0178 18.1778C40.0178 17.8242 39.8773 17.4851 39.6272 17.235C39.3772 16.985 39.0381 16.8445 38.6844 16.8445H38.64Z" fill="#232A44"/>
<path d="M23.8489 7.54664C23.5429 7.55024 23.2475 7.65898 23.0122 7.8546C22.7769 8.05023 22.616 8.32084 22.5566 8.62102C22.4972 8.9212 22.5429 9.23268 22.6859 9.50318C22.829 9.77369 23.0607 9.98676 23.3422 10.1066C23.1467 14.2311 22.9956 18.6133 22.8889 23.44H23.7778C23.8845 18.5955 24.0356 14.2222 24.2311 10.1066C24.533 10.0111 24.7911 9.81132 24.9592 9.54292C25.1272 9.27452 25.1942 8.95508 25.1482 8.64178C25.1023 8.32848 24.9463 8.04177 24.7082 7.83297C24.4701 7.62417 24.1655 7.50692 23.8489 7.5022V7.54664Z" fill="#232A44"/>
<path d="M32.5689 17.4845C32.5702 17.255 32.5124 17.0291 32.4009 16.8285C32.2893 16.628 32.1279 16.4596 31.9323 16.3397C31.7366 16.2198 31.5134 16.1524 31.284 16.1441C31.0547 16.1357 30.8271 16.1867 30.6233 16.2921C30.4194 16.3975 30.2462 16.5537 30.1204 16.7456C29.9946 16.9375 29.9205 17.1586 29.9052 17.3876C29.8899 17.6166 29.9339 17.8456 30.0331 18.0526C30.1322 18.2595 30.2831 18.4374 30.4711 18.5689C27.0457 27.3096 25.2792 36.6121 25.2622 46H26.1511C26.1664 36.6923 27.924 27.4698 31.3333 18.8089C31.6682 18.7843 31.9815 18.6342 32.2105 18.3887C32.4396 18.1432 32.5675 17.8203 32.5689 17.4845V17.4845Z" fill="#232A44"/>
<path d="M3.77785 29.2267L4.5423 31.0045L6.4623 31.3867C6.50869 31.397 6.55135 31.4198 6.58556 31.4528C6.61977 31.4858 6.6442 31.5276 6.65616 31.5736C6.66811 31.6195 6.66713 31.6679 6.65331 31.7134C6.63949 31.7589 6.61338 31.7996 6.57785 31.8312L5.11118 33.1378L5.3423 35.0756C5.34779 35.1236 5.33966 35.1722 5.31885 35.2159C5.29803 35.2595 5.26537 35.2964 5.22458 35.3224C5.18379 35.3483 5.13653 35.3623 5.08819 35.3627C5.03984 35.363 4.99237 35.3498 4.95118 35.3245L3.27118 34.3289L1.49341 35.1467C1.4492 35.165 1.40089 35.1711 1.35354 35.1643C1.30618 35.1575 1.26153 35.138 1.22427 35.108C1.187 35.078 1.15849 35.0386 1.14172 34.9938C1.12495 34.949 1.12054 34.9005 1.12896 34.8534L1.55563 32.9512L0.248962 31.5112C0.217877 31.4761 0.196938 31.4332 0.188399 31.3871C0.179859 31.3411 0.184041 31.2935 0.200495 31.2497C0.216949 31.2058 0.245053 31.1672 0.281784 31.1381C0.318515 31.109 0.362484 31.0905 0.408962 31.0845L2.35563 30.8889L3.33341 29.2C3.3584 29.1626 3.39278 29.1323 3.43311 29.1123C3.47344 29.0922 3.51833 29.0831 3.56328 29.0858C3.60824 29.0885 3.65171 29.1029 3.68936 29.1276C3.727 29.1524 3.75751 29.1865 3.77785 29.2267Z" fill="#232A44"/>
<path d="M44.3379 25.4934L43.4491 26.5956L43.8491 27.9645C43.8603 27.9984 43.8616 28.0349 43.8527 28.0696C43.8438 28.1043 43.8251 28.1357 43.7989 28.16C43.7727 28.1844 43.74 28.2007 43.7048 28.207C43.6695 28.2133 43.6332 28.2093 43.6002 28.1956L42.2757 27.68L41.0935 28.48C41.0644 28.5005 41.0301 28.5122 40.9946 28.5138C40.959 28.5154 40.9238 28.5068 40.893 28.4891C40.8622 28.4714 40.8371 28.4452 40.8206 28.4137C40.8042 28.3821 40.7971 28.3466 40.8002 28.3111L40.8802 26.8889L39.7513 26C39.7235 25.9784 39.7024 25.9495 39.6904 25.9164C39.6784 25.8834 39.676 25.8476 39.6834 25.8132C39.6908 25.7789 39.7078 25.7473 39.7324 25.7222C39.757 25.697 39.7882 25.6793 39.8224 25.6711L41.2002 25.3067L41.6891 23.9645C41.7025 23.9319 41.7252 23.904 41.7545 23.8844C41.7838 23.8647 41.8183 23.8542 41.8535 23.8542C41.8888 23.8542 41.9232 23.8647 41.9525 23.8844C41.9818 23.904 42.0046 23.9319 42.0179 23.9645L42.7913 25.1645L44.2135 25.2089C44.2437 25.2143 44.2722 25.2271 44.2963 25.2461C44.3204 25.2651 44.3395 25.2897 44.3518 25.3179C44.3641 25.346 44.3693 25.3767 44.3668 25.4074C44.3644 25.438 44.3545 25.4675 44.3379 25.4934Z" fill="#232A44"/>
<path d="M5.04887 7.24453L4.7911 8.66676L5.80443 9.64453C5.82992 9.66899 5.84795 9.70017 5.85642 9.73447C5.86489 9.76876 5.86346 9.80475 5.85229 9.83827C5.84112 9.87178 5.82067 9.90143 5.79332 9.92378C5.76596 9.94613 5.73283 9.96027 5.69776 9.96453L4.28443 10.1601L3.64443 11.4312C3.62935 11.4632 3.60546 11.4903 3.57555 11.5093C3.54565 11.5283 3.51096 11.5384 3.47554 11.5384C3.44012 11.5384 3.40544 11.5283 3.37553 11.5093C3.34563 11.4903 3.32174 11.4632 3.30665 11.4312L2.68443 10.1423L1.27999 9.92898C1.24664 9.92191 1.21572 9.90624 1.19029 9.88353C1.16486 9.86082 1.14582 9.83186 1.13504 9.79952C1.12425 9.76718 1.12212 9.73258 1.12883 9.69916C1.13555 9.66573 1.15088 9.63465 1.17332 9.60898L2.20443 8.66676L1.97332 7.26231C1.96705 7.22743 1.97083 7.19148 1.98423 7.15868C1.99764 7.12587 2.0201 7.09755 2.04901 7.07704C2.07791 7.05653 2.11205 7.04467 2.14745 7.04285C2.18284 7.04103 2.21802 7.04932 2.24887 7.06676L3.5111 7.73342L4.77332 7.08453C4.80145 7.06929 4.83302 7.06154 4.865 7.06201C4.89699 7.06248 4.92832 7.07116 4.95599 7.08723C4.98365 7.10329 5.00672 7.12619 5.02299 7.15374C5.03926 7.18129 5.04817 7.21255 5.04887 7.24453V7.24453Z" fill="#232A44"/>
<path d="M34.8889 4.87114L35.3334 4.62225C35.3911 4.59224 35.4396 4.54695 35.4734 4.49131C35.5072 4.43566 35.5251 4.3718 35.5251 4.30669C35.5251 4.24158 35.5072 4.17772 35.4734 4.12208C35.4396 4.06643 35.3911 4.02114 35.3334 3.99114L32.8711 2.91558L32.3734 0.293359C32.3612 0.230352 32.3318 0.17196 32.2884 0.124685C32.245 0.077411 32.1893 0.0431101 32.1276 0.0256023C32.0658 0.00809448 32.0004 0.00806702 31.9387 0.0255228C31.8769 0.0429786 31.8212 0.0772326 31.7778 0.12447L30 2.10669L27.3334 1.76891C27.2677 1.76147 27.2013 1.77245 27.1416 1.80063C27.0819 1.8288 27.0312 1.87306 26.9952 1.92843C26.9592 1.9838 26.9393 2.04811 26.9378 2.11413C26.9363 2.18016 26.9533 2.2453 26.9867 2.30225L28.3289 4.60447L27.1823 7.02225C27.1571 7.08133 27.1485 7.1461 27.1572 7.2097C27.1659 7.2733 27.1917 7.33335 27.2318 7.38348C27.2719 7.43361 27.3248 7.47195 27.385 7.49442C27.4451 7.5169 27.5102 7.52267 27.5734 7.51114L30.1867 6.95114L32.1334 8.78225C32.1806 8.82799 32.24 8.85933 32.3044 8.87262C32.3688 8.88591 32.4357 8.88059 32.4972 8.85729C32.5587 8.83399 32.6123 8.79366 32.6518 8.74102C32.6913 8.68839 32.7149 8.62561 32.72 8.56002L32.9956 5.89336L34.0267 5.32447" fill="#232A44"/>
</svg>
