<svg width="36" height="46" viewBox="0 0 36 46" fill="none" xmlns="http://www.w3.org/2000/svg">
<path fill-rule="evenodd" clip-rule="evenodd" d="M32.2534 43.3867C31.2549 42.4868 29.9779 41.9566 28.6357 41.8844H22.5823C22.4063 41.8857 22.2346 41.8296 22.0934 41.7244L16.7601 37.6711C16.5243 37.4897 16.3518 37.2386 16.267 36.9534C16.1823 36.6683 16.1897 36.3636 16.2882 36.0829C16.3867 35.8022 16.5712 35.5597 16.8156 35.39C17.0599 35.2203 17.3516 35.1321 17.649 35.1378L23.4446 35.2356C23.9257 35.2428 24.3903 35.0603 24.738 34.7276C25.0856 34.3949 25.2884 33.9388 25.3023 33.4578V33.1911C25.3121 32.9479 25.2719 32.7054 25.1842 32.4784C25.0964 32.2514 24.963 32.0448 24.7922 31.8715C24.6213 31.6982 24.4167 31.5618 24.1911 31.4707C23.9654 31.3797 23.7234 31.3359 23.4801 31.3422C20.7039 31.344 17.9316 31.136 15.1868 30.72C14.2638 30.5791 13.3658 30.3067 12.5201 29.9111C10.7062 29.068 8.68094 28.7893 6.70677 29.1111H6.39566C5.86692 29.1996 5.33176 29.2442 4.79566 29.2444H0.555664V37.3067C2.19251 37.3025 3.7931 37.7886 5.15122 38.7022C9.30557 41.6064 13.9619 43.7161 18.8846 44.9244C19.4678 45.0561 20.0645 45.1187 20.6623 45.1111H31.5423C31.7431 45.1133 31.9399 45.0552 32.1073 44.9444C32.2748 44.8337 32.4052 44.6753 32.4817 44.4896C32.5583 44.304 32.5774 44.0998 32.5367 43.9031C32.496 43.7065 32.3974 43.5266 32.2534 43.3867Z" fill="#232A44"/>
<path fill-rule="evenodd" clip-rule="evenodd" d="M23.471 39.8934L22.1377 40.6401L22.6266 41.0134H26.8933L30.6177 38.2401C30.7934 38.1102 30.9388 37.9436 31.044 37.7521C31.1491 37.5605 31.2114 37.3483 31.2266 37.1303C31.2418 36.9123 31.2096 36.6936 31.1321 36.4893C31.0546 36.285 30.9337 36.0999 30.7777 35.9468V35.9468C30.5245 35.6766 30.1875 35.4998 29.8213 35.4449C29.4552 35.3901 29.0812 35.4604 28.7599 35.6446C27.7021 36.5334 23.9688 39.5734 23.9688 39.5734C23.8145 39.6971 23.6476 39.8044 23.471 39.8934V39.8934Z" fill="#232A44"/>
<path fill-rule="evenodd" clip-rule="evenodd" d="M23.0357 39.1112C23.1535 39.0455 23.2664 38.9712 23.3734 38.889C23.3734 38.889 26.8046 36.089 28.0134 35.0845C27.9873 34.8823 27.9192 34.6877 27.8136 34.5132C27.708 34.3387 27.5672 34.1882 27.4001 34.0712C27.0563 33.8336 26.6397 33.7247 26.2235 33.7637C25.8074 33.8028 25.4183 33.9872 25.1246 34.2845L21.7557 37.8401C21.6449 37.9555 21.5027 38.0358 21.3468 38.0712L19.3379 38.5423L21.3646 40.0712L23.0357 39.1112Z" fill="#232A44"/>
<path fill-rule="evenodd" clip-rule="evenodd" d="M21.151 37.2L23.0088 35.2356C22.9347 35.0157 22.8113 34.8156 22.648 34.6507C22.4847 34.4859 22.2858 34.3606 22.0665 34.2845V34.2845C21.7245 34.1426 21.3443 34.1216 20.9887 34.225C20.6331 34.3285 20.3235 34.5501 20.111 34.8534C19.8443 35.4134 19.2665 36.6312 18.7065 37.7689L21.151 37.2Z" fill="#232A44"/>
<path d="M12.1111 7.77783C11.8753 7.77783 11.6492 7.87148 11.4825 8.03818C11.3158 8.20488 11.2222 8.43097 11.2222 8.66672V13.1112H12.1111V29.1112C12.1111 29.3469 12.2047 29.573 12.3714 29.7397C12.5381 29.9064 12.7642 30.0001 12.9999 30.0001H20.9999V7.77783H12.1111Z" fill="#232A44"/>
<path d="M25.4443 7.77783V30.0001H33.4443C33.6801 30.0001 33.9062 29.9064 34.0729 29.7397C34.2396 29.573 34.3332 29.3469 34.3332 29.1112V13.1112H35.2221V8.66672C35.2221 8.43097 35.1285 8.20488 34.9618 8.03818C34.7951 7.87148 34.569 7.77783 34.3332 7.77783H25.4443Z" fill="#232A44"/>
<path d="M21.2045 5.18228C20.2573 4.6273 19.2085 4.26764 18.1201 4.1245C18.0616 4.1179 18.0049 4.09974 17.9535 4.07106C17.902 4.04238 17.8568 4.00376 17.8204 3.95744C17.784 3.91112 17.7572 3.85803 17.7415 3.80126C17.7258 3.74448 17.7215 3.68515 17.729 3.62672C17.7466 3.5111 17.8083 3.40678 17.901 3.33555C17.9938 3.26432 18.1105 3.23169 18.2268 3.2445C19.4685 3.40439 20.6638 3.81897 21.7379 4.46228C21.9388 4.28043 22.1706 4.13594 22.4223 4.03561C21.6629 2.87398 20.6395 1.90844 19.4356 1.21783C19.1416 1.05178 18.8176 0.945338 18.4823 0.904611C18.1471 0.863884 17.8071 0.889667 17.4818 0.980485C17.1565 1.0713 16.8523 1.22537 16.5866 1.43388C16.3209 1.64238 16.099 1.90123 15.9334 2.19561C15.1447 3.62759 14.7925 5.25912 14.9201 6.88894H21.1423C21.0459 6.63953 20.9976 6.37411 21.0001 6.10672C21.0016 5.78753 21.0713 5.47234 21.2045 5.18228V5.18228Z" fill="#232A44"/>
<path d="M30.5114 2.19561C30.3458 1.90123 30.1238 1.64238 29.8582 1.43388C29.5925 1.22537 29.2883 1.0713 28.963 0.980485C28.6377 0.889667 28.2977 0.863884 27.9624 0.904611C27.6272 0.945338 27.3032 1.05178 27.0091 1.21783C25.8053 1.90844 24.7819 2.87398 24.0225 4.03561C24.2742 4.13594 24.506 4.28043 24.7069 4.46228C25.781 3.81897 26.9763 3.40439 28.218 3.2445C28.3343 3.23169 28.451 3.26432 28.5437 3.33555C28.6365 3.40678 28.6982 3.5111 28.7158 3.62672C28.7232 3.68515 28.719 3.74448 28.7033 3.80126C28.6876 3.85803 28.6608 3.91112 28.6244 3.95744C28.588 4.00376 28.5428 4.04238 28.4913 4.07106C28.4399 4.09974 28.3832 4.1179 28.3247 4.1245C27.2362 4.26764 26.1875 4.6273 25.2402 5.18228C25.3686 5.46142 25.4382 5.76398 25.4447 6.07117C25.4443 6.33912 25.393 6.60457 25.2936 6.85339H31.5158C31.6391 5.23628 31.2902 3.61817 30.5114 2.19561V2.19561Z" fill="#232A44"/>
<path d="M23.2225 7.33342C23.9589 7.33342 24.5558 6.73646 24.5558 6.00008C24.5558 5.2637 23.9589 4.66675 23.2225 4.66675C22.4861 4.66675 21.8892 5.2637 21.8892 6.00008C21.8892 6.73646 22.4861 7.33342 23.2225 7.33342Z" fill="#232A44"/>
</svg>
