<svg width="31" height="42" viewBox="0 0 31 42" fill="none" xmlns="http://www.w3.org/2000/svg">
<path d="M25.4414 25.7473C24.9326 25.7473 24.2678 25.5932 23.401 25.1725C22.152 24.5684 20.7251 23.5363 19.3835 22.2645C18.0419 20.9927 16.9341 19.6231 16.262 18.4051C15.2321 16.5389 15.5413 15.5875 15.9796 15.1179C17.2774 13.7361 20.1895 15.6389 21.3801 16.5218C21.7039 16.7615 21.7745 17.2213 21.5359 17.5466C21.2973 17.8719 20.8396 17.9428 20.5157 17.7031C18.412 16.1476 17.2287 16.0082 17.0363 16.1305C16.8537 16.4631 17.5866 18.5445 20.3867 21.1981C23.1843 23.8494 25.2953 24.4657 25.6265 24.2529C25.7287 24.0646 25.4877 22.8075 23.7492 20.7432C23.4887 20.4351 23.5276 19.9703 23.8344 19.7087C24.1437 19.447 24.6039 19.4861 24.8644 19.7943C25.8529 20.9682 28.0102 23.8518 26.6832 25.2655C26.4422 25.5198 26.055 25.7473 25.4414 25.7473Z" fill="#222B45"/>
<path d="M10.5863 41.5568C10.0774 41.5568 9.41272 41.4027 8.54591 40.982C7.29683 40.3779 5.87001 39.3458 4.52841 38.074C3.1868 36.8022 2.07894 35.4326 1.40693 34.2146C0.376984 32.3484 0.683774 31.397 1.12448 30.9274C1.21944 30.8272 15.3757 15.7587 15.5193 15.6071C15.7969 15.3136 16.2595 15.2989 16.5517 15.5777C16.8439 15.8565 16.8585 16.3212 16.5809 16.6147C15.9966 17.2384 2.24695 31.8691 2.18364 31.9351C1.99616 32.2702 2.72905 34.354 5.52913 37.0052C8.32677 39.6589 10.4402 40.2752 10.7689 40.06C10.8249 39.9988 25.1589 24.7445 25.1589 24.7445L26.2205 25.7522C26.2205 25.7522 11.889 41.0065 11.8257 41.0725C11.587 41.3293 11.1999 41.5568 10.5863 41.5568Z" fill="#222B45"/>
<path d="M22.1617 29.6116C21.9815 29.6116 21.8013 29.5456 21.6601 29.4111C17.2944 25.2728 16.4228 21.2715 16.4617 18.6447C16.4666 18.2436 16.7929 17.9208 17.1922 17.9208C17.1946 17.9208 17.1995 17.9208 17.2019 17.9208C17.6061 17.9257 17.9275 18.2607 17.9226 18.6643C17.8886 20.9976 18.6847 24.5684 22.6633 28.3423C22.9554 28.6211 22.9701 29.0858 22.6925 29.3793C22.5488 29.5358 22.3565 29.6116 22.1617 29.6116Z" fill="#222B45"/>
<path d="M16.5177 35.4913C16.3375 35.4913 16.1573 35.4253 16.0161 35.2908C11.6991 31.199 10.6935 27.298 10.6082 24.7446C10.5157 21.9319 11.4799 20.1025 11.5213 20.0267C11.7137 19.6696 12.1568 19.5375 12.5123 19.7307C12.8654 19.924 12.9993 20.3666 12.8094 20.7237C12.673 20.983 9.55151 27.1439 17.0192 34.2244C17.3114 34.5032 17.326 34.9679 17.0485 35.2614C16.9048 35.4131 16.71 35.4913 16.5177 35.4913Z" fill="#222B45"/>
<path d="M11.492 41.2267C11.3118 41.2267 11.1317 41.1607 10.9904 41.0262C2.51472 32.9917 6.14265 25.8818 6.30092 25.5835C6.49084 25.2264 6.93398 25.0919 7.28947 25.2826C7.64496 25.4734 7.77887 25.9161 7.59139 26.2732C7.4526 26.5422 4.36764 32.73 11.9936 39.9598C12.2882 40.2386 12.3004 40.7033 12.0228 40.9968C11.8792 41.1484 11.6868 41.2267 11.492 41.2267Z" fill="#222B45"/>
<path d="M21.531 20.7138C21.3094 20.7138 21.0903 20.6135 20.9466 20.4228C20.7031 20.0999 20.7689 19.6401 21.0903 19.3955C21.1414 19.3564 24.465 16.781 24.8497 13.3031C25.0469 11.5348 24.443 9.79828 23.0552 8.14738C22.7947 7.83677 22.8336 7.37451 23.1428 7.11281C23.4521 6.85111 23.9123 6.89025 24.1728 7.20086C25.8309 9.17706 26.5468 11.2878 26.3008 13.4767C25.8382 17.593 22.1275 20.4472 21.9717 20.5671C21.8378 20.6649 21.6844 20.7138 21.531 20.7138Z" fill="#222B45"/>
<path d="M30.0604 10.8574C29.9362 10.8574 29.812 10.8256 29.6952 10.7595L26.3886 8.84695C26.038 8.64395 25.9187 8.19637 26.1208 7.84418C26.3229 7.49444 26.7684 7.37214 27.1191 7.57514L30.4256 9.48775C30.7762 9.69075 30.8955 10.1383 30.6934 10.4905C30.5595 10.7253 30.3136 10.8574 30.0604 10.8574Z" fill="#222B45"/>
<path d="M26.0452 5.95118C25.8261 5.95118 25.6094 5.85335 25.4657 5.66502C25.2198 5.34463 25.2782 4.88238 25.5972 4.63535L28.2877 2.54665C28.6067 2.29963 29.0669 2.35833 29.3128 2.67873C29.5587 2.99913 29.5003 3.46138 29.1813 3.7084L26.4908 5.7971C26.3593 5.89982 26.201 5.95118 26.0452 5.95118Z" fill="#222B45"/>
<path d="M23.3376 5.33728C23.0041 5.33728 22.7022 5.10493 22.6267 4.76252L21.7647 0.893276C21.6771 0.497057 21.9254 0.10573 22.3174 0.0176816C22.7119 -0.0703669 23.1015 0.179105 23.1891 0.572878L24.051 4.44212C24.1387 4.83834 23.8903 5.22967 23.4983 5.31771C23.4448 5.33239 23.3912 5.33728 23.3376 5.33728Z" fill="#222B45"/>
<path d="M21.1343 6.90998C21.0856 6.90998 21.0345 6.90509 20.9858 6.8953L17.0243 6.06863C16.6298 5.98547 16.3766 5.5966 16.4569 5.20038C16.5397 4.80417 16.9244 4.54736 17.3213 4.63051L21.2828 5.45719C21.6773 5.54034 21.9305 5.92922 21.8502 6.32543C21.7771 6.67029 21.4728 6.90998 21.1343 6.90998Z" fill="#222B45"/>
<path d="M20.7054 11.5104C20.5666 11.5104 20.4254 11.4713 20.3012 11.3882C19.9652 11.1631 19.8751 10.7082 20.0991 10.3707L21.1802 8.74426C21.4042 8.40674 21.857 8.31625 22.193 8.54126C22.5291 8.76627 22.6191 9.22118 22.3951 9.5587L21.3141 11.1852C21.1729 11.3979 20.9416 11.5104 20.7054 11.5104Z" fill="#222B45"/>
</svg>
