<svg width="34" height="34" viewBox="0 0 34 34" fill="none" xmlns="http://www.w3.org/2000/svg">
<path d="M27.2098 34.0001C26.9334 34.0001 26.682 33.8503 26.55 33.6096L24.7 30.1917L20.7958 29.7571C20.5144 29.7252 20.2729 29.5386 20.1758 29.2759C20.0787 29.0131 20.1434 28.716 20.3401 28.5147L23.0641 25.7229L22.2773 21.9268C22.22 21.6518 22.3271 21.3694 22.5512 21.1976C22.7753 21.0257 23.079 20.9938 23.3355 21.1165L26.8687 22.8083L30.2849 20.898C30.5339 20.7605 30.8377 20.7728 31.0742 20.9299C31.3107 21.0871 31.4327 21.3621 31.3954 21.6395L30.8551 25.4773L33.7534 28.0923C33.9625 28.2814 34.0447 28.5712 33.9675 28.8412C33.8878 29.1113 33.6612 29.3127 33.3799 29.3618L29.513 30.0419L27.8871 33.5679C27.7701 33.8233 27.5161 33.9902 27.2297 34.0001C27.2273 34.0001 27.2198 34.0001 27.2098 34.0001ZM22.4715 28.4607L25.2602 28.77C25.5042 28.797 25.7208 28.9419 25.8354 29.1555L27.1575 31.5987L28.3178 29.0794C28.4199 28.8584 28.6241 28.7013 28.8681 28.6595L31.6319 28.1734L29.5603 26.3048C29.3786 26.1403 29.2914 25.8997 29.3238 25.659L29.7097 22.9164L27.2671 24.2816C27.053 24.4019 26.794 24.4092 26.5724 24.3037L24.0476 23.0956L24.6103 25.8088C24.6601 26.047 24.5879 26.2925 24.4161 26.4669L22.4715 28.4607Z" fill="#222B45"/>
<path d="M22.84 27.3048C22.6284 27.3048 22.4192 27.2164 22.2723 27.047C10.4377 13.3777 1.78768 14.3648 1.70302 14.3771C1.35692 14.4237 1.02576 14.2298 0.90375 13.9081C0.781744 13.5864 0.89877 13.223 1.19009 13.034C2.61184 12.1034 3.82942 11.767 4.69342 11.6614C3.39368 9.729 0.472992 8.40063 0.438133 8.38589C0.174201 8.26558 0.00239535 8.00776 -9.45781e-05 7.72048C-0.00258451 7.4332 0.164241 7.17292 0.425684 7.05015C2.03169 6.29389 4.12074 6.5026 5.58233 6.80461C4.10331 4.70524 1.54117 2.52484 1.51129 2.49783C1.27475 2.29894 1.1876 1.97483 1.29467 1.68755C1.39925 1.40026 1.67563 1.20629 1.98438 1.20138C5.8612 1.1449 9.43674 2.90052 11.4312 4.10858L10.6543 0.909183C10.5871 0.634178 10.6867 0.34444 10.9083 0.167651C11.1299 -0.011594 11.4386 -0.0484251 11.6976 0.0718897C17.3199 2.67462 21.7395 6.13183 24.8345 10.3478C28.1262 14.8338 29.0972 19.0743 29.3313 21.8391C29.3661 22.2442 29.0599 22.6002 28.649 22.6346C28.2332 22.6714 27.8772 22.367 27.8423 21.9618C27.17 14.0333 21.4631 6.69412 12.4769 2.09269L13.3335 5.6162C13.4082 5.92067 13.2762 6.23987 13.0098 6.40929C12.7409 6.57871 12.3948 6.56153 12.1458 6.36755C12.1035 6.33563 8.43579 3.52665 4.05849 2.82931C5.37318 4.1184 7.13356 6.04835 7.79339 7.71557C7.90045 7.98566 7.83572 8.29259 7.63154 8.49884C7.42488 8.7051 7.11613 8.77385 6.83974 8.67318C6.81236 8.66335 4.73824 7.92673 2.80357 8.00285C4.19793 8.8868 6.00562 10.3355 6.59075 12.1746C6.67043 12.4275 6.60818 12.7025 6.42393 12.8965C6.23967 13.0905 5.96578 13.1715 5.70434 13.1101C5.67944 13.1052 5.30097 13.034 4.65359 13.1445C8.4084 13.8885 15.2059 16.6115 23.4102 26.0869C23.6791 26.3963 23.6418 26.8604 23.3281 27.1255C23.1861 27.2459 23.0118 27.3048 22.84 27.3048Z" fill="#222B45"/>
<path d="M23.1189 18.6636C22.7778 18.6636 22.469 18.4303 22.3918 18.0866C21.5851 14.5262 19.6081 13.2052 19.5234 13.1512C19.1798 12.9278 19.0827 12.4735 19.3068 12.1322C19.5309 11.7934 19.989 11.6927 20.3351 11.9112C20.4397 11.9775 22.9023 13.576 23.8509 17.7649C23.9406 18.1627 23.6866 18.5556 23.2857 18.6439C23.2259 18.6587 23.1712 18.6636 23.1189 18.6636Z" fill="#222B45"/>
<path d="M17.9399 18.0717C17.7108 18.0717 17.4842 17.9686 17.3373 17.7722C13.9933 13.2812 10.3456 12.8098 10.3082 12.8049C9.89987 12.7582 9.60606 12.3924 9.65088 11.9897C9.6957 11.587 10.0567 11.2948 10.4701 11.339C10.6444 11.3587 14.7776 11.8473 18.5374 16.8981C18.7815 17.2271 18.7092 17.6862 18.3781 17.9269C18.2486 18.0251 18.0942 18.0717 17.9399 18.0717Z" fill="#222B45"/>
</svg>
