<svg width="39" height="37" viewBox="0 0 39 37" fill="none" xmlns="http://www.w3.org/2000/svg">
<path d="M5.46317 21.0204C5.39126 21.0204 5.31687 21.0104 5.24744 20.988C4.97716 20.9058 4.77631 20.6741 4.72919 20.3952L4.21343 17.2468L1.33702 15.8868C1.08161 15.7648 0.915474 15.5082 0.910515 15.2243C0.905556 14.9403 1.06177 14.6763 1.31222 14.5468L4.13408 13.0797L4.53082 9.91388C4.56554 9.63242 4.75895 9.39331 5.02676 9.30115C5.29456 9.20899 5.59212 9.27624 5.79297 9.4755L8.05442 11.7197L11.1763 11.1219C11.454 11.0696 11.7392 11.1792 11.9103 11.4059C12.0814 11.6325 12.1087 11.9364 11.9822 12.1905L10.5564 15.0424L12.0888 17.8396C12.2252 18.0887 12.2103 18.3951 12.0467 18.6267C11.8855 18.8608 11.6053 18.9804 11.3251 18.938L8.18336 18.4573L6.0087 20.7837C5.86488 20.9382 5.6665 21.0204 5.46317 21.0204ZM3.33562 15.1794L5.20033 16.0612C5.42102 16.1658 5.57724 16.3725 5.61692 16.6166L5.95166 18.6591L7.36259 17.1497C7.53121 16.9703 7.77422 16.8856 8.01723 16.923L10.0555 17.2343L9.06116 15.421C8.94214 15.2043 8.93718 14.9453 9.04877 14.7261L9.97368 12.8754L7.9478 13.264C7.70727 13.3088 7.4593 13.2341 7.28572 13.0623L5.81777 11.6076L5.55988 13.6625C5.53013 13.9066 5.38134 14.1208 5.16313 14.2329L3.33562 15.1794Z" fill="#222B45"/>
<path d="M31.8866 19.1447C31.8544 19.1447 31.8221 19.1422 31.7874 19.1373C31.5072 19.0999 31.2716 18.9056 31.1799 18.6366L30.1632 15.6128L27.1058 14.741C26.833 14.6638 26.6297 14.4371 26.5776 14.1582C26.5256 13.8792 26.6371 13.5927 26.8653 13.4234L29.4144 11.5179L29.2953 8.3272C29.2854 8.04325 29.4367 7.77673 29.6846 7.64223C29.9326 7.50773 30.2376 7.52516 30.4682 7.68955L33.0619 9.53523L36.045 8.43679C36.3103 8.33965 36.6079 8.40192 36.8137 8.5962C37.0195 8.79298 37.0964 9.08938 37.0121 9.36088L36.0673 12.4096L38.0287 14.9203C38.2048 15.1445 38.237 15.4484 38.1155 15.7049C37.994 15.9615 37.7361 16.1259 37.4534 16.1284L34.277 16.1657L32.5065 18.8159C32.3652 19.0202 32.1321 19.1447 31.8866 19.1447ZM28.9655 13.7148L30.9493 14.2802C31.1848 14.3475 31.3733 14.5268 31.4502 14.7609L32.1098 16.7237L33.2579 15.005C33.3942 14.8008 33.6224 14.6762 33.8678 14.6738L35.9284 14.6488L34.6564 13.0199C34.5051 12.8256 34.458 12.5715 34.5324 12.3349L35.1449 10.3572L33.2107 11.0696C32.9826 11.1543 32.7247 11.1194 32.5239 10.9774L30.8402 9.77933L30.917 11.8492C30.927 12.0958 30.8154 12.3299 30.617 12.4769L28.9655 13.7148Z" fill="#222B45"/>
<path d="M13.537 11.9015C13.4453 11.9015 13.3511 11.8841 13.2618 11.8492C12.9989 11.7446 12.8179 11.498 12.7956 11.2141L12.6171 8.95492L10.6631 7.82161C10.4176 7.67963 10.2738 7.41063 10.2936 7.12668C10.311 6.84272 10.4895 6.59364 10.7499 6.48405L12.8328 5.61476L13.3015 3.39795C13.361 3.11898 13.5717 2.89979 13.8445 2.83005C14.1173 2.76031 14.4099 2.85247 14.5934 3.06917L16.0613 4.79031L18.3054 4.55368C18.5856 4.52379 18.8609 4.65829 19.0121 4.89741C19.1634 5.13902 19.1659 5.4429 19.0171 5.68699L17.8393 7.61985L18.7567 9.68971C18.8708 9.94875 18.8311 10.2526 18.6501 10.4718C18.4691 10.691 18.179 10.7881 17.9037 10.7209L15.7092 10.1928L14.0354 11.7097C13.8941 11.8368 13.718 11.9015 13.537 11.9015ZM12.7113 7.2836L13.6982 7.85648C13.9115 7.97853 14.0478 8.20021 14.0677 8.44431L14.1569 9.58509L15.005 8.81793C15.186 8.65353 15.4365 8.58877 15.677 8.64606L16.7854 8.91258L16.3217 7.86644C16.2225 7.64227 16.2399 7.38323 16.3663 7.17151L16.9614 6.19512L15.8282 6.31468C15.5852 6.34207 15.3447 6.24493 15.186 6.05812L14.4446 5.18883L14.209 6.30969C14.1594 6.5513 13.9933 6.75057 13.7676 6.84522L12.7113 7.2836Z" fill="#222B45"/>
<path d="M25.6179 9.44311C25.365 9.44311 25.1294 9.31359 24.9905 9.09689L23.6838 7.03949L21.2562 6.95232C20.9735 6.94235 20.7206 6.77049 20.604 6.51144C20.4875 6.2524 20.5272 5.94852 20.7082 5.72933L22.253 3.84629L21.5835 1.49996C21.5066 1.22597 21.5885 0.932057 21.7992 0.740265C22.0075 0.548474 22.3076 0.493676 22.5729 0.59829L24.8343 1.49249L26.8503 0.127529C27.0859 -0.0318822 27.3884 -0.0418454 27.6339 0.0976393C27.8794 0.239615 28.0256 0.508621 28.0083 0.792572L27.862 3.22857L29.7763 4.73301C29.9994 4.90737 30.1036 5.1963 30.0466 5.47278C29.9895 5.75175 29.7788 5.97343 29.506 6.04317L27.1528 6.65342L26.3221 8.94744C26.2254 9.21396 25.9849 9.40326 25.7047 9.43564C25.6724 9.44311 25.6452 9.44311 25.6179 9.44311ZM22.8159 5.51263L24.1276 5.55996C24.3731 5.56743 24.5963 5.69695 24.7277 5.90618L25.4344 7.01957L25.8832 5.77915C25.9675 5.54751 26.1585 5.37315 26.3965 5.31088L27.6686 4.9796L26.6346 4.1676C26.4411 4.01566 26.3345 3.77904 26.3494 3.53494L26.4287 2.21731L25.3402 2.95458C25.1368 3.09158 24.879 3.11898 24.6508 3.02931L23.4284 2.54609L23.7904 3.81391C23.8573 4.05054 23.8053 4.3046 23.6491 4.4939L22.8159 5.51263Z" fill="#222B45"/>
<path d="M22.9621 26.3432C22.7786 26.3432 22.5976 26.2734 22.4562 26.1439L19.2178 23.13L14.9106 24.1014C14.6354 24.1637 14.3477 24.0641 14.1692 23.8424C13.9907 23.6207 13.9535 23.3168 14.0725 23.0603L15.9248 19.0352L13.6733 15.2218C13.5294 14.9777 13.5344 14.6713 13.6906 14.4322C13.8444 14.1931 14.1196 14.0635 14.4023 14.0984L18.7863 14.624L21.7024 11.2938C21.8884 11.0796 22.181 10.9924 22.4538 11.0646C22.7265 11.1393 22.9348 11.361 22.9894 11.64L23.8473 15.9889L27.8991 17.7449C28.1595 17.857 28.3331 18.1086 28.3479 18.3925C28.3628 18.6765 28.214 18.943 27.9685 19.0825L24.1151 21.2445L23.7035 25.6607C23.6762 25.9446 23.4927 26.1887 23.2299 26.2884C23.1406 26.3257 23.0514 26.3432 22.9621 26.3432ZM19.436 21.5683C19.622 21.5683 19.803 21.638 19.9419 21.7676L22.362 24.0192L22.6695 20.7214C22.6918 20.4773 22.8332 20.2581 23.0464 20.1386L25.9253 18.5221L22.8976 17.2094C22.672 17.1123 22.5108 16.9105 22.4637 16.6689L21.8239 13.4184L19.6468 15.9067C19.4856 16.091 19.2426 16.1832 18.9996 16.1558L15.7239 15.7623L17.4052 18.6117C17.5291 18.8234 17.544 19.0825 17.4399 19.3067L16.0562 22.313L19.2748 21.5857C19.3269 21.5733 19.3815 21.5683 19.436 21.5683Z" fill="#222B45"/>
<path d="M16.3737 36.4608C15.972 36.4608 15.6398 36.1395 15.6298 35.731C15.4315 27.7854 8.64713 21.4662 8.58018 21.404C8.27766 21.125 8.25535 20.6542 8.53307 20.3479C8.81079 20.044 9.27945 20.0216 9.58445 20.3005C9.88449 20.5745 16.9044 27.1029 17.1201 35.6937C17.13 36.1072 16.8052 36.4484 16.3961 36.4584C16.3861 36.4608 16.3812 36.4608 16.3737 36.4608Z" fill="#222B45"/>
<path d="M26.1682 36.2516C25.7764 36.2516 25.4491 35.9452 25.4268 35.5467C24.7845 24.363 29.9124 20.7962 30.1331 20.6492C30.4753 20.4201 30.9365 20.5123 31.1647 20.856C31.3928 21.1972 31.3011 21.6605 30.9613 21.8897C30.8993 21.932 26.3244 25.2248 26.9121 35.4595C26.9369 35.8705 26.622 36.2242 26.2128 36.2491C26.1955 36.2516 26.1806 36.2516 26.1682 36.2516Z" fill="#222B45"/>
<path d="M21.3752 36.147C20.9636 36.147 20.6313 35.8133 20.6313 35.3998C20.6313 29.2525 18.0823 25.5063 18.0575 25.469C17.8219 25.1302 17.9037 24.6645 18.2409 24.4278C18.5757 24.1912 19.0394 24.2734 19.275 24.6097C19.3915 24.7765 22.1191 28.7519 22.1191 35.3998C22.1191 35.8133 21.7868 36.147 21.3752 36.147Z" fill="#222B45"/>
</svg>
