<svg width="45" height="40" viewBox="0 0 45 40" fill="none" xmlns="http://www.w3.org/2000/svg">
<path d="M1.00473 39.1169C0.789735 39.1169 0.574741 39.0355 0.412796 38.8701C0.0861154 38.5419 0.0861154 38.009 0.412796 37.6809L18.8354 19.1756C19.1621 18.8474 19.6926 18.8474 20.0193 19.1756C20.3459 19.5037 20.3459 20.0366 20.0193 20.3647L1.59668 38.8701C1.43474 39.0355 1.21973 39.1169 1.00473 39.1169Z" fill="#222B45"/>
<path d="M21.5075 21.4641C19.4301 21.4641 17.7408 19.7673 17.7408 17.6806C17.7408 15.5939 19.4301 13.8971 21.5075 13.8971C23.5848 13.8971 25.2741 15.5939 25.2741 17.6806C25.2741 19.7673 23.5848 21.4641 21.5075 21.4641ZM21.5075 15.5799C20.3543 15.5799 19.4161 16.5223 19.4161 17.6806C19.4161 18.8389 20.3543 19.7813 21.5075 19.7813C22.6606 19.7813 23.5988 18.8389 23.5988 17.6806C23.5988 16.5223 22.6606 15.5799 21.5075 15.5799Z" fill="#222B45"/>
<path d="M13.9489 18.7128H9.41443C8.95093 18.7128 8.57678 18.337 8.57678 17.8714C8.57678 17.4059 8.95093 17.03 9.41443 17.03H13.9489C14.4124 17.03 14.7865 17.4059 14.7865 17.8714C14.7865 18.3342 14.4124 18.7128 13.9489 18.7128Z" fill="#222B45"/>
<path d="M16.2166 12.8285C16.0016 12.8285 15.7866 12.7472 15.6246 12.5817L12.4137 9.35632C12.087 9.02817 12.087 8.49528 12.4137 8.16713C12.7403 7.83898 13.2708 7.83898 13.5975 8.16713L16.8085 11.3925C17.1352 11.7207 17.1352 12.2536 16.8085 12.5817C16.6465 12.7472 16.4316 12.8285 16.2166 12.8285Z" fill="#222B45"/>
<path d="M22.0742 10.9298C21.6107 10.9298 21.2366 10.554 21.2366 10.0884V5.34287C21.2366 4.87729 21.6107 4.50146 22.0742 4.50146C22.5377 4.50146 22.9118 4.87729 22.9118 5.34287V10.0884C22.9118 10.554 22.5377 10.9298 22.0742 10.9298Z" fill="#222B45"/>
<path d="M27.3654 13.2072C27.1504 13.2072 26.9354 13.1259 26.7735 12.9604C26.4468 12.6323 26.4468 12.0994 26.7735 11.7712L30.1743 8.35512C30.501 8.02697 31.0315 8.02697 31.3582 8.35512C31.6848 8.68327 31.6848 9.21616 31.3582 9.54431L27.9573 12.9604C27.7954 13.1259 27.5804 13.2072 27.3654 13.2072Z" fill="#222B45"/>
<path d="M34.3568 19.8516C34.287 19.8516 34.2172 19.8432 34.1474 19.8236L29.0462 18.4942C28.5995 18.3764 28.3287 17.9192 28.4459 17.4676C28.5632 17.0189 29.0183 16.7468 29.4678 16.8646L34.5691 18.1941C35.0158 18.3119 35.2866 18.769 35.1694 19.2206C35.0716 19.5992 34.731 19.8516 34.3568 19.8516Z" fill="#222B45"/>
<path d="M28.9708 26.9138C28.6999 26.9138 28.4347 26.782 28.2727 26.5408L25.8212 22.8582C25.5643 22.4712 25.6677 21.9495 26.053 21.6915C26.4383 21.4335 26.9576 21.5372 27.2145 21.9243L29.666 25.6068C29.9229 25.9939 29.8196 26.5155 29.4343 26.7736C29.2919 26.8661 29.1299 26.9138 28.9708 26.9138Z" fill="#222B45"/>
<path d="M19.7148 29.2473C19.6478 29.2473 19.578 29.2389 19.511 29.222C19.0615 29.1098 18.7879 28.6527 18.9023 28.2011L19.8461 24.4064C19.9577 23.9548 20.4129 23.68 20.8624 23.795C21.3119 23.9072 21.5855 24.3643 21.4711 24.8159L20.5273 28.6106C20.4296 28.992 20.089 29.2473 19.7148 29.2473Z" fill="#222B45"/>
<path d="M19.0141 3.09078L17.336 4.20985L17.3025 6.22922L15.7249 4.97272L13.8011 5.56451L14.5048 3.67135L13.3488 2.01659L15.3592 2.10353L16.5682 0.488037L17.1098 2.43449L19.0141 3.09078Z" fill="#222B45"/>
<path d="M44.7102 14.6684L43.0349 15.7875L43.0014 17.8069L41.4239 16.5532L39.5001 17.145L40.2037 15.249L39.0477 13.597L41.0581 13.6812L42.2671 12.0657L42.8087 14.0121L44.7102 14.6684Z" fill="#222B45"/>
<path d="M29.9732 31.7518L28.2951 32.8709L28.2616 34.8902L26.6868 33.6365L24.763 34.2283L25.4639 32.3324L24.3079 30.6776L26.3183 30.7645L27.5273 29.149L28.069 31.0955L29.9732 31.7518Z" fill="#222B45"/>
<path d="M42.8812 28.3329C42.8812 29.079 42.278 29.6848 41.5353 29.6848C40.7926 29.6848 40.1923 29.079 40.1923 28.3329C40.1923 27.5869 40.7926 26.9839 41.5353 26.9839C42.278 26.9839 42.8812 27.5869 42.8812 28.3329Z" fill="#222B45"/>
<path d="M29.482 1.64915C29.482 2.56068 28.7449 3.29831 27.8374 3.29831C26.93 3.29831 26.1956 2.56068 26.1956 1.64915C26.1956 0.737631 26.93 0 27.8374 0C28.7449 0 29.482 0.737631 29.482 1.64915Z" fill="#222B45"/>
</svg>
