<svg width="29" height="42" viewBox="0 0 29 42" fill="none" xmlns="http://www.w3.org/2000/svg">
<path d="M9.52523 12.2877C5.30053 12.2877 0.75415 11.2501 0.75415 8.97049C0.75415 8.61454 0.75415 7.52649 8.97735 0.488221C9.25631 0.248395 9.66597 0.245871 9.94744 0.483172C18.3365 7.48357 18.3365 8.59182 18.3365 8.95535C18.3365 9.6925 17.8389 10.7326 15.4589 11.495C13.868 12.0049 11.7695 12.2851 9.54785 12.2877H9.52523ZM2.27212 9.03108C2.4581 9.58647 4.98638 10.773 9.52523 10.773V11.5303L9.54533 10.773C11.6162 10.7705 13.5539 10.5155 14.999 10.0535C16.336 9.62434 16.7356 9.18507 16.811 9.01341C16.3536 8.14246 12.7924 4.86063 9.46994 2.05845C6.2078 4.8783 2.70942 8.1778 2.27212 9.03108Z" fill="#222B45"/>
<path d="M9.475 29.3027C8.74617 29.3027 2.70192 29.232 2.69941 26.9196C2.69941 26.8363 2.68433 10.7023 2.68433 10.7023L4.19225 10.6998C4.19225 10.6998 4.20733 25.5034 4.20733 26.8237C4.54661 27.1721 6.37873 27.7855 9.46746 27.7855C9.47249 27.7855 9.47751 27.7855 9.48254 27.7855C12.5788 27.783 14.416 27.1645 14.7552 26.8161C14.7552 25.5009 14.7402 10.6922 14.7402 10.6922L16.2481 10.6897C16.2481 10.6897 16.2632 26.8287 16.2632 26.9045C16.2632 27.7376 15.4816 28.3737 13.941 28.7903C12.7396 29.1159 11.1563 29.2952 9.48254 29.2977C9.48003 29.3027 9.47751 29.3027 9.475 29.3027Z" fill="#222B45"/>
<path d="M15.4011 15.3574C9.94992 15.3574 6.8813 13.5751 5.26532 12.0781C4.9587 11.7954 4.9386 11.3157 5.22259 11.0077C5.50407 10.6998 5.98158 10.6796 6.28819 10.9648C7.70563 12.2776 10.44 13.8427 15.4011 13.8427C15.4061 13.8427 15.4136 13.8453 15.4187 13.8427C15.8358 13.8427 16.1726 14.181 16.1726 14.6001C16.1726 15.0191 15.8358 15.3574 15.4187 15.3574C15.4111 15.3574 15.4061 15.3574 15.4011 15.3574Z" fill="#222B45"/>
<path d="M15.3233 21.189C4.89606 21.189 2.88299 15.1833 2.80257 14.9283C2.67691 14.5294 2.89556 14.1028 3.29264 13.9766C3.68721 13.8503 4.10943 14.07 4.23761 14.4663C4.31049 14.6885 6.07727 19.6743 15.3233 19.6743C15.3284 19.6743 15.3359 19.6769 15.3409 19.6743C15.7581 19.6743 16.0949 20.0126 16.0949 20.4317C16.0949 20.8507 15.7581 21.189 15.3409 21.189C15.3359 21.189 15.3309 21.189 15.3233 21.189Z" fill="#222B45"/>
<path d="M15.0946 27.523C4.86333 27.523 2.88795 21.5223 2.80753 21.2674C2.68438 20.8685 2.89298 20.4418 3.27498 20.3131C3.65448 20.1844 4.06161 20.4015 4.18727 20.7978C4.26016 21.025 6.00181 26.0083 15.0946 26.0083C15.0996 26.0083 15.1046 26.0033 15.1122 26.0083C15.5118 26.0083 15.8385 26.3466 15.8385 26.7657C15.8385 27.1848 15.5143 27.523 15.1122 27.523C15.1071 27.523 15.1021 27.523 15.0946 27.523Z" fill="#222B45"/>
<path d="M23.0687 36.3207C22.7143 36.3207 22.3976 36.0683 22.3298 35.7047C21.8297 33.0666 17.6025 33.1323 14.2046 33.1853C12.473 33.2105 11.1058 33.2333 10.279 32.9C8.90175 32.3472 8.19805 30.8224 8.29858 28.6084C8.31869 28.1893 8.66802 27.8662 9.08521 27.8864C9.5024 27.9066 9.82409 28.26 9.80399 28.6766C9.76378 29.5576 9.84671 31.095 10.8394 31.4939C11.3848 31.7135 12.8073 31.6908 14.182 31.6706C17.9342 31.6125 23.0737 31.5318 23.8126 35.422C23.8905 35.8335 23.6216 36.2298 23.2119 36.3081C23.1642 36.3182 23.1164 36.3207 23.0687 36.3207Z" fill="#222B45"/>
<path d="M20.6134 36.5783C20.5632 36.5783 20.5104 36.5732 20.4601 36.5631L18.0022 36.0532C17.5951 35.9673 17.3312 35.5685 17.4166 35.157C17.5021 34.748 17.8992 34.4855 18.3088 34.5688L20.7667 35.0787C21.1739 35.1645 21.4378 35.5634 21.3523 35.9749C21.2769 36.3309 20.9628 36.5783 20.6134 36.5783Z" fill="#222B45"/>
<path d="M20.1031 41.0389C19.9548 41.0389 19.804 40.9935 19.6734 40.9026C19.3316 40.6628 19.2486 40.1907 19.4874 39.8474L21.0255 37.6334C21.2642 37.2901 21.7342 37.2068 22.076 37.4466C22.4178 37.6864 22.5007 38.1585 22.262 38.5018L20.7239 40.7158C20.5756 40.9253 20.3419 41.0389 20.1031 41.0389Z" fill="#222B45"/>
<path d="M25.1922 41.1475C24.9233 41.1475 24.6644 41.0036 24.5287 40.7511L23.4204 38.6937C23.2218 38.3251 23.3576 37.8657 23.7245 37.6662C24.0914 37.4668 24.5488 37.6031 24.7474 37.9717L25.8557 40.0291C26.0542 40.3977 25.9185 40.8572 25.5516 41.0566C25.4385 41.1172 25.3154 41.1475 25.1922 41.1475Z" fill="#222B45"/>
<path d="M28.2458 37.6639H25.8633C25.4461 37.6639 25.1093 37.3256 25.1093 36.9065C25.1093 36.4875 25.4461 36.1492 25.8633 36.1492H28.2458C28.663 36.1492 28.9998 36.4875 28.9998 36.9065C28.9998 37.3231 28.663 37.6639 28.2458 37.6639Z" fill="#222B45"/>
<path d="M25.4159 35.3109C25.2576 35.3109 25.0992 35.2604 24.9635 35.1594C24.6293 34.9095 24.5639 34.4349 24.8127 34.0991L26.0693 32.4153C26.3181 32.0795 26.7931 32.0139 27.1249 32.2638C27.4591 32.5138 27.5245 32.9884 27.2757 33.3241L26.0191 35.0079C25.8708 35.2074 25.6446 35.3109 25.4159 35.3109Z" fill="#222B45"/>
</svg>
