<svg width="40" height="39" viewBox="0 0 40 39" fill="none" xmlns="http://www.w3.org/2000/svg">
<path d="M15.0408 16.3416C14.9345 16.3617 14.8205 16.3339 14.7295 16.2565C7.3931 10.0088 3.15223 11.3646 3.10949 11.3782C2.94052 11.4363 2.75448 11.3631 2.66039 11.2012C2.5663 11.0393 2.58794 10.8322 2.71486 10.7026C3.33348 10.0655 3.9103 9.76836 4.33321 9.6293C3.48621 8.71144 1.88325 8.27281 1.864 8.26685C1.71948 8.22837 1.60666 8.10432 1.57632 7.95093C1.54573 7.79622 1.6029 7.63999 1.72159 7.54893C2.4505 6.9884 3.52042 6.90243 4.28492 6.92641C3.32813 5.93468 1.81939 5.00219 1.80038 4.9907C1.66133 4.90591 1.58574 4.73915 1.6089 4.57427C1.63205 4.40938 1.75097 4.27849 1.9067 4.24626C3.84692 3.84735 5.82097 4.45441 6.94546 4.91643L6.22878 3.26467C6.16695 3.12274 6.18736 2.957 6.28054 2.84059C6.37347 2.72285 6.52469 2.67364 6.66696 2.71392C9.75488 3.58336 12.3264 5.02795 14.3105 7.00766C16.4209 9.11435 17.3413 11.3092 17.7412 12.7781C17.8 12.9933 17.6827 13.2144 17.48 13.272C17.275 13.3314 17.0652 13.201 17.0063 12.9858C15.8592 8.77349 12.2451 5.35749 7.26452 3.72977L8.05429 5.54876C8.12288 5.70588 8.08923 5.89058 7.9728 6.00728C7.85512 6.12421 7.67964 6.14784 7.53485 6.06688C7.51035 6.05369 5.38248 4.88725 3.11406 4.92716C3.90561 5.49748 4.98633 6.37108 5.48755 7.20626C5.56887 7.34176 5.56772 7.51345 5.4863 7.6441C5.40363 7.77498 5.25566 7.84141 5.10665 7.81338C5.0919 7.81069 3.97557 7.61052 3.01222 7.83544C3.8024 8.17968 4.85771 8.78922 5.33923 9.72552C5.40506 9.85436 5.4019 10.0086 5.32922 10.1307C5.25654 10.2529 5.12733 10.3226 4.98983 10.3143C4.97683 10.3141 4.77959 10.3116 4.46591 10.4327C6.42664 10.4771 10.1168 11.2998 15.2026 15.6306C15.3692 15.7719 15.3978 16.0257 15.2674 16.1986C15.2075 16.2785 15.127 16.3253 15.0408 16.3416Z" fill="#222B45" stroke="#222B45" stroke-width="0.7"/>
<path d="M17.1535 24.2689C18.9757 24.2689 21.3701 22.9896 23.4032 20.9341C26.47 17.8297 27.5511 14.2643 25.9215 12.6406C25.4336 12.1532 24.7454 11.8989 23.9332 11.8989C22.111 11.8989 19.7167 13.1783 17.6835 15.2338C16.315 16.6191 15.2786 18.1872 14.7644 19.6494C14.1816 21.3102 14.324 22.6876 15.1679 23.5273C15.6531 24.012 16.3413 24.2689 17.1535 24.2689ZM23.9332 13.4856C24.3261 13.4856 24.6188 13.5809 24.806 13.7664C25.6261 14.5822 24.719 17.3423 22.2798 19.8136C20.3232 21.7923 18.2953 22.6797 17.1535 22.6797C16.7632 22.6797 16.4679 22.5843 16.2807 22.3989C15.9062 22.0254 15.8983 21.1963 16.2543 20.1792C16.692 18.9342 17.5992 17.5754 18.8043 16.3516C20.7635 14.3729 22.7914 13.4856 23.9332 13.4856Z" fill="#222B45"/>
<path d="M30.4626 38.5964C32.2479 38.5964 34.5895 37.4018 36.707 35.2589C38.0756 33.8736 39.1119 32.3054 39.6261 30.8433C40.2089 29.1825 40.0665 27.8051 39.2227 26.9654C38.9115 26.6555 38.4105 26.6581 38.1046 26.9707C37.7961 27.2833 37.7987 27.7865 38.1099 28.0938C38.4843 28.4673 38.4922 29.2964 38.1336 30.3135C37.6959 31.5585 36.7887 32.9173 35.5836 34.1411C33.1444 36.6098 30.4046 37.5422 29.5845 36.7263C29.2733 36.4164 28.7749 36.4191 28.4664 36.7316C28.1579 37.0442 28.1605 37.5475 28.4717 37.8547C28.9727 38.3554 29.661 38.5964 30.4626 38.5964Z" fill="#222B45"/>
<path d="M38.6003 28.2501C38.7928 28.2501 38.9879 28.1785 39.1408 28.0355C39.4599 27.7362 39.4784 27.2329 39.1804 26.9124L26.0297 12.7492C25.7318 12.4286 25.2307 12.4101 24.9117 12.7094C24.5926 13.0087 24.5741 13.512 24.8721 13.8325L38.0228 27.9958C38.1783 28.1653 38.3893 28.2501 38.6003 28.2501Z" fill="#222B45"/>
<path d="M28.5981 37.6217C28.7906 37.6217 28.9857 37.5501 29.1386 37.4071C29.4577 37.1078 29.4762 36.6045 29.1782 36.284L16.0276 22.1207C15.7296 21.8002 15.2285 21.7817 14.9095 22.081C14.5904 22.3803 14.5719 22.8836 14.8699 23.2041L28.0206 37.37C28.1761 37.5369 28.3871 37.6217 28.5981 37.6217Z" fill="#222B45"/>
<path d="M18.8361 19.366C19.2448 19.8057 20.1994 19.5806 20.9667 18.8628C21.7341 18.1423 22.0268 17.202 21.6154 16.7623C21.2067 16.3225 20.2521 16.5477 19.4848 17.2682C18.7174 17.986 18.4247 18.9263 18.8361 19.366Z" fill="#222B45"/>
</svg>
