<svg width="26" height="40" viewBox="0 0 26 40" fill="none" xmlns="http://www.w3.org/2000/svg">
<path d="M9.22279 11.881C5.02849 11.881 0.512108 10.8549 0.509705 8.60465C0.509705 8.25215 0.509704 7.18016 8.6964 0.173549C8.9632 -0.05582 9.35499 -0.0582391 9.62419 0.168715C9.64342 0.185616 11.6793 1.88778 13.6911 3.70341C17.9743 7.57371 17.9743 8.16282 17.9743 8.59259C17.9743 9.31691 17.4816 10.3406 15.1285 11.0939C13.5469 11.6009 11.4581 11.881 9.24442 11.881C9.24682 11.881 9.2252 11.881 9.22279 11.881ZM1.96148 8.6626C2.12493 9.23723 4.59104 10.4324 9.22279 10.4324V11.1567L9.24442 10.4324C11.3115 10.4299 13.2464 10.174 14.691 9.71287C15.9601 9.30725 16.448 8.85334 16.5226 8.6457C16.0947 7.79342 12.5109 4.49051 9.16991 1.67289C5.89138 4.50741 2.3749 7.82238 1.96148 8.6626Z" fill="#222B45"/>
<path d="M9.17219 24.9792C8.4463 24.9792 2.4517 24.9091 2.4493 22.6348C2.4493 22.5551 2.43488 10.3334 2.43488 10.3334L3.87704 10.331C3.87704 10.331 3.89146 21.4928 3.89146 22.5527C4.21114 22.9028 6.03789 23.5305 9.16258 23.5305C9.16739 23.5305 9.1746 23.5305 9.17941 23.5305C12.3137 23.5281 14.1477 22.8979 14.4674 22.5479C14.465 21.4928 14.4529 10.3261 14.4529 10.3261L15.8951 10.3237C15.8951 10.3237 15.9095 22.5285 15.9095 22.6251C15.9095 23.4412 15.138 24.0641 13.6165 24.477C12.4219 24.8005 10.8475 24.9792 9.17941 24.9816C9.17701 24.9792 9.1746 24.9792 9.17219 24.9792Z" fill="#222B45"/>
<path d="M15.0804 14.9425C9.65785 14.9425 6.60286 13.1703 4.99725 11.683C4.70401 11.4126 4.68478 10.9539 4.95639 10.6593C5.2256 10.3648 5.68228 10.3454 5.97552 10.6183C7.39365 11.9317 10.1241 13.4962 15.0828 13.4962C15.0876 13.4962 15.0948 13.4962 15.0996 13.4962C15.4986 13.4962 15.8207 13.8198 15.8207 14.2206C15.8207 14.6213 15.4986 14.9449 15.0996 14.9449C15.0924 14.9425 15.0852 14.9425 15.0804 14.9425Z" fill="#222B45"/>
<path d="M15.0033 21.2368C4.6317 21.2368 2.6319 15.2708 2.55258 15.0173C2.4324 14.6358 2.64392 14.2278 3.02128 14.1071C3.39865 13.9864 3.80245 14.1964 3.92503 14.5755C3.99954 14.7976 5.7638 19.7882 15.0033 19.7882C15.0105 19.7882 15.0129 19.7882 15.0225 19.7882C15.4215 19.7882 15.7436 20.1117 15.7436 20.5125C15.7436 20.9133 15.4215 21.2368 15.0225 21.2368C15.0153 21.2368 15.0105 21.2368 15.0033 21.2368Z" fill="#222B45"/>
<path d="M9.1794 39.1034C8.7804 39.1034 8.45831 38.7799 8.45831 38.3791V24.2548C8.45831 23.854 8.7804 23.5305 9.1794 23.5305C9.5784 23.5305 9.90049 23.854 9.90049 24.2548V38.3791C9.90049 38.7799 9.5784 39.1034 9.1794 39.1034Z" fill="#222B45"/>
<path d="M16.7751 32.4951C15.2416 32.4951 13.8763 32.0725 12.701 31.2323C9.63395 29.0425 9.00661 24.8076 8.98017 24.6289C8.92489 24.233 9.1989 23.866 9.59309 23.8105C9.98729 23.7549 10.3526 24.0302 10.4079 24.4261C10.4175 24.4889 10.9896 28.2385 13.5422 30.0565C14.8402 30.9788 16.4578 31.2589 18.3567 30.8822C18.7485 30.805 19.1258 31.0609 19.2027 31.452C19.2797 31.8456 19.0249 32.2246 18.6355 32.3019C17.9913 32.4323 17.3712 32.4951 16.7751 32.4951Z" fill="#222B45"/>
<path d="M13.7296 36.3798C13.4845 36.3798 13.2465 36.2543 13.1119 36.0298C12.9052 35.6869 13.0158 35.2427 13.3571 35.035L16.3207 33.2412C16.662 33.0335 17.1043 33.1446 17.311 33.4874C17.5177 33.8303 17.4072 34.2745 17.0658 34.4821L14.1022 36.276C13.9844 36.346 13.857 36.3798 13.7296 36.3798Z" fill="#222B45"/>
<path d="M19.8347 38.3935C19.4838 38.3935 19.1785 38.1376 19.1232 37.7778L18.6569 34.7188C18.5969 34.3228 18.8661 33.9534 19.2602 33.8931C19.652 33.8327 20.0222 34.1031 20.0822 34.4991L20.5485 37.5581C20.6086 37.9541 20.3394 38.3235 19.9452 38.3838C19.9068 38.3911 19.8707 38.3935 19.8347 38.3935Z" fill="#222B45"/>
<path d="M24.4736 34.4605C24.4063 34.4605 24.339 34.4508 24.2693 34.4315L20.837 33.4174C20.4548 33.304 20.2361 32.9032 20.3491 32.5193C20.462 32.1354 20.861 31.9157 21.2432 32.0291L24.6755 33.0432C25.0577 33.1567 25.2764 33.5575 25.1635 33.9414C25.0721 34.2552 24.7861 34.4605 24.4736 34.4605Z" fill="#222B45"/>
<path d="M20.7674 31.0006C20.6016 31.0006 20.4333 30.9427 20.2963 30.8244C19.9935 30.5636 19.9598 30.1073 20.2194 29.8031L22.6134 27.0096C22.873 26.7054 23.3297 26.6716 23.6301 26.9324C23.933 27.1931 23.9666 27.6494 23.707 27.9537L21.313 30.7471C21.1736 30.9137 20.9717 31.0006 20.7674 31.0006Z" fill="#222B45"/>
<path d="M18.1331 30.2136C17.8711 30.2136 17.6187 30.0711 17.4913 29.82L16.6813 28.2458C16.4986 27.8909 16.638 27.4539 16.9913 27.2704C17.3447 27.0869 17.7797 27.227 17.9624 27.5819L18.7724 29.1561C18.9551 29.511 18.8157 29.948 18.4624 30.1315C18.3566 30.187 18.2436 30.2136 18.1331 30.2136Z" fill="#222B45"/>
</svg>
