<svg width="14" height="14" viewBox="0 0 14 14" fill="none" xmlns="http://www.w3.org/2000/svg">
<path fill-rule="evenodd" clip-rule="evenodd" d="M7.47802 1.25151L9.03011 4.3786C9.10711 4.53642 9.25665 4.64588 9.43038 4.67197L12.9037 5.17533C13.0443 5.19379 13.1716 5.26824 13.2575 5.38151C13.4191 5.59215 13.3949 5.89251 13.2008 6.07451L10.6847 8.51815C10.5574 8.63715 10.5001 8.81406 10.5332 8.9846L11.1397 12.4292C11.1817 12.7156 10.9876 12.9816 10.7031 13.0287C10.5847 13.0472 10.4638 13.0281 10.3576 12.9746L7.25974 11.3512C7.10447 11.2666 6.91738 11.2666 6.76274 11.3512L3.64456 12.9861C3.38429 13.1172 3.06865 13.0185 2.92738 12.7652C2.87329 12.6628 2.85356 12.5444 2.87265 12.4292L3.47911 8.9846C3.50838 8.81406 3.45174 8.63906 3.32765 8.51815L0.791743 6.07388C0.584924 5.8677 0.584288 5.53297 0.79047 5.32551C0.791106 5.32551 0.791106 5.32488 0.791743 5.32424C0.876379 5.24724 0.981379 5.19506 1.09465 5.17533L4.56792 4.67197C4.74038 4.64397 4.88993 4.53451 4.9682 4.3786L6.52029 1.25151C6.58202 1.12424 6.69274 1.02688 6.82702 0.982331C6.96129 0.937149 7.10829 0.947331 7.23556 1.0116C7.33993 1.06379 7.42456 1.14779 7.47802 1.25151Z" fill="#E1EAF5"/>
</svg>
