<svg width="20" height="19" viewBox="0 0 20 19" fill="none" xmlns="http://www.w3.org/2000/svg">
<path opacity="0.4" d="M9.77603 18.8374C7.49298 17.4273 5.37068 15.7645 3.44795 13.8796C2.09056 12.5338 1.05392 10.8905 0.417223 9.07526C-0.720409 5.53523 0.603866 1.48948 4.30117 0.288397C6.25268 -0.324469 8.37511 0.0517545 10.0071 1.29983C11.6397 0.0531503 13.7614 -0.322951 15.713 0.288397C19.4103 1.48948 20.7435 5.53523 19.6059 9.07526C18.9744 10.8888 17.9439 12.5319 16.5929 13.8796C14.6684 15.7625 12.5464 17.4251 10.2649 18.8374L10.016 19L9.77603 18.8374Z" fill="#FD401B"/>
<path d="M10.0109 19L9.77598 18.8374C7.49013 17.4274 5.36487 15.7647 3.43902 13.8796C2.0752 12.5356 1.03238 10.8922 0.390519 9.07523C-0.738225 5.5352 0.58605 1.48945 4.28335 0.288367C6.23486 -0.324499 8.38528 0.0520129 10.0109 1.31054V19Z" fill="#FD401B"/>
</svg>
