<svg width="40" height="40" viewBox="0 0 40 40" fill="none" xmlns="http://www.w3.org/2000/svg">
<path d="M29.375 10.625C30.7557 10.625 31.875 9.50571 31.875 8.125C31.875 6.74429 30.7557 5.625 29.375 5.625C27.9943 5.625 26.875 6.74429 26.875 8.125C26.875 9.50571 27.9943 10.625 29.375 10.625Z" fill="url(#paint0_linear)"/>
<path d="M10.625 30C12.0057 30 13.125 28.8807 13.125 27.5C13.125 26.1193 12.0057 25 10.625 25C9.24429 25 8.125 26.1193 8.125 27.5C8.125 28.8807 9.24429 30 10.625 30Z" fill="url(#paint1_linear)"/>
<path d="M29.375 30C30.7557 30 31.875 28.8807 31.875 27.5C31.875 26.1193 30.7557 25 29.375 25C27.9943 25 26.875 26.1193 26.875 27.5C26.875 28.8807 27.9943 30 29.375 30Z" fill="url(#paint2_linear)"/>
<path d="M10.625 10.625C12.0057 10.625 13.125 9.50571 13.125 8.125C13.125 6.74429 12.0057 5.625 10.625 5.625C9.24429 5.625 8.125 6.74429 8.125 8.125C8.125 9.50571 9.24429 10.625 10.625 10.625Z" fill="url(#paint3_linear)"/>
<path d="M12.5 10.625H8.75C7.9212 10.625 7.12634 10.9542 6.54029 11.5403C5.95424 12.1263 5.625 12.9212 5.625 13.75V14.8687C5.63484 14.8787 5.64398 14.8892 5.65391 14.8991C6.27519 15.5275 7.01539 16.0259 7.83133 16.3651C8.64727 16.7043 9.5226 16.8777 10.4062 16.875H15.625V13.75C15.625 12.9212 15.2958 12.1263 14.7097 11.5403C14.1237 10.9542 13.3288 10.625 12.5 10.625Z" fill="url(#paint4_linear)"/>
<path opacity="0.2" d="M10.2593 1.25003C7.87506 1.2667 5.59319 2.22125 3.90722 3.90722C2.22125 5.59319 1.2667 7.87506 1.25003 10.2593C1.22104 15.3027 5.37769 19.375 10.421 19.375H19.375V10.421C19.375 5.37769 15.3027 1.22104 10.2593 1.25003ZM18.125 18.125H10.4063C6.05831 18.125 2.47503 14.6143 2.50003 10.2667C2.51439 8.21126 3.33727 6.24412 4.7907 4.7907C6.24412 3.33727 8.21126 2.51439 10.2667 2.50003C14.6144 2.47503 18.125 6.05831 18.125 10.4063V18.125Z" fill="url(#paint5_linear)"/>
<path d="M5.625 33.125V34.2662C6.79268 35.4686 8.37739 36.1769 10.0521 36.245C10.138 36.2483 10.2261 36.25 10.3126 36.25H10.313C11.1749 36.2518 12.0285 36.0826 12.8245 35.7522C13.6205 35.4219 14.3431 34.9369 14.9504 34.3255C15.1955 34.08 15.421 33.8158 15.625 33.5353V33.125C15.625 32.2962 15.2958 31.5013 14.7097 30.9153C14.1237 30.3292 13.3288 30 12.5 30H8.75C7.9212 30 7.12634 30.3292 6.54029 30.9153C5.95424 31.5013 5.625 32.2962 5.625 33.125Z" fill="url(#paint6_linear)"/>
<path opacity="0.2" d="M1.25003 29.7407C1.2667 32.125 2.22125 34.4068 3.90722 36.0928C5.59319 37.7788 7.87506 38.7333 10.2593 38.75C15.3027 38.779 19.375 34.6223 19.375 29.579V20.625H10.421C5.37769 20.625 1.22104 24.6973 1.25003 29.7407ZM18.125 29.6875C18.125 31.2327 17.6668 32.7431 16.8084 34.0279C15.9499 35.3127 14.7298 36.314 13.3022 36.9053C11.8747 37.4966 10.3039 37.6513 8.78839 37.3499C7.27291 37.0484 5.88085 36.3044 4.78826 35.2118C3.69566 34.1192 2.95159 32.7271 2.65014 31.2116C2.3487 29.6962 2.50341 28.1253 3.09472 26.6978C3.68603 25.2702 4.68738 24.0501 5.97214 23.1916C7.2569 22.3332 8.76736 21.875 10.3125 21.875H18.125V29.6875Z" fill="url(#paint7_linear)"/>
<path d="M34.375 14.8687V13.75C34.375 12.9212 34.0458 12.1263 33.4597 11.5403C32.8737 10.9542 32.0788 10.625 31.25 10.625H27.5C26.6712 10.625 25.8763 10.9542 25.2903 11.5403C24.7042 12.1263 24.375 12.9212 24.375 13.75V16.875H29.5937C30.4774 16.8777 31.3527 16.7043 32.1686 16.3651C32.9845 16.0258 33.7247 15.5275 34.3459 14.8991C34.356 14.8892 34.3652 14.8788 34.375 14.8687Z" fill="url(#paint8_linear)"/>
<path opacity="0.2" d="M38.75 10.2593C38.7333 7.87506 37.7788 5.59319 36.0928 3.90722C34.4068 2.22125 32.125 1.2667 29.7407 1.25003C24.6973 1.22104 20.625 5.37769 20.625 10.421V19.375H29.579C34.6223 19.375 38.779 15.3027 38.75 10.2593ZM21.875 10.4063C21.875 6.05831 25.3856 2.47503 29.7334 2.50003C31.7888 2.51439 33.7559 3.33727 35.2093 4.7907C36.6628 6.24412 37.4856 8.21126 37.5 10.2667C37.525 14.6143 33.9417 18.125 29.5937 18.125H21.875V10.4063Z" fill="url(#paint9_linear)"/>
<path d="M31.25 30H27.5C26.6712 30 25.8763 30.3292 25.2903 30.9153C24.7042 31.5013 24.375 32.2962 24.375 33.125V33.4945C24.9768 34.344 25.7731 35.0374 26.6973 35.5167C27.6215 35.996 28.6469 36.2475 29.688 36.25H29.7262C30.5939 36.244 31.4518 36.0655 32.2499 35.7249C33.0481 35.3842 33.7704 34.8881 34.375 34.2656V33.125C34.375 32.2962 34.0458 31.5013 33.4597 30.9153C32.8737 30.3292 32.0788 30 31.25 30Z" fill="url(#paint10_linear)"/>
<path opacity="0.2" d="M29.579 20.625H20.625V29.579C20.625 34.6223 24.6973 38.779 29.7407 38.7498C32.1249 38.7332 34.4068 37.7787 36.0928 36.0927C37.7787 34.4068 38.7333 32.1249 38.75 29.7407C38.779 24.6973 34.6223 20.625 29.579 20.625ZM29.7334 37.5C25.3856 37.525 21.875 33.9417 21.875 29.5938V21.875H29.5937C33.9416 21.875 37.5248 25.3856 37.5 29.7334C37.4856 31.7888 36.6628 33.7559 35.2093 35.2093C33.7559 36.6628 31.7888 37.4856 29.7334 37.5Z" fill="url(#paint11_linear)"/>
<defs>
<linearGradient id="paint0_linear" x1="26.8725" y1="8.12507" x2="31.877" y2="8.12507" gradientUnits="userSpaceOnUse">
<stop stop-color="#0A134D"/>
<stop offset="1" stop-color="#073871"/>
</linearGradient>
<linearGradient id="paint1_linear" x1="8.12249" y1="27.5001" x2="13.127" y2="27.5001" gradientUnits="userSpaceOnUse">
<stop stop-color="#0A134D"/>
<stop offset="1" stop-color="#073871"/>
</linearGradient>
<linearGradient id="paint2_linear" x1="26.8725" y1="27.5001" x2="31.877" y2="27.5001" gradientUnits="userSpaceOnUse">
<stop stop-color="#0A134D"/>
<stop offset="1" stop-color="#073871"/>
</linearGradient>
<linearGradient id="paint3_linear" x1="8.12249" y1="8.12507" x2="13.127" y2="8.12507" gradientUnits="userSpaceOnUse">
<stop stop-color="#0A134D"/>
<stop offset="1" stop-color="#073871"/>
</linearGradient>
<linearGradient id="paint4_linear" x1="5.61998" y1="13.7501" x2="15.6289" y2="13.7501" gradientUnits="userSpaceOnUse">
<stop stop-color="#0A134D"/>
<stop offset="1" stop-color="#073871"/>
</linearGradient>
<linearGradient id="paint5_linear" x1="1.24077" y1="10.3127" x2="19.3822" y2="10.3127" gradientUnits="userSpaceOnUse">
<stop stop-color="#0A134D"/>
<stop offset="1" stop-color="#073871"/>
</linearGradient>
<linearGradient id="paint6_linear" x1="5.61998" y1="33.1251" x2="15.6289" y2="33.1251" gradientUnits="userSpaceOnUse">
<stop stop-color="#0A134D"/>
<stop offset="1" stop-color="#073871"/>
</linearGradient>
<linearGradient id="paint7_linear" x1="1.24077" y1="29.6878" x2="19.3822" y2="29.6878" gradientUnits="userSpaceOnUse">
<stop stop-color="#0A134D"/>
<stop offset="1" stop-color="#073871"/>
</linearGradient>
<linearGradient id="paint8_linear" x1="24.37" y1="13.7501" x2="34.3789" y2="13.7501" gradientUnits="userSpaceOnUse">
<stop stop-color="#0A134D"/>
<stop offset="1" stop-color="#073871"/>
</linearGradient>
<linearGradient id="paint9_linear" x1="20.6159" y1="10.3127" x2="38.7573" y2="10.3127" gradientUnits="userSpaceOnUse">
<stop stop-color="#0A134D"/>
<stop offset="1" stop-color="#073871"/>
</linearGradient>
<linearGradient id="paint10_linear" x1="24.37" y1="33.1251" x2="34.3789" y2="33.1251" gradientUnits="userSpaceOnUse">
<stop stop-color="#0A134D"/>
<stop offset="1" stop-color="#073871"/>
</linearGradient>
<linearGradient id="paint11_linear" x1="20.6159" y1="29.6877" x2="38.7573" y2="29.6877" gradientUnits="userSpaceOnUse">
<stop stop-color="#0A134D"/>
<stop offset="1" stop-color="#073871"/>
</linearGradient>
</defs>
</svg>
