<svg width="40" height="40" viewBox="0 0 40 40" fill="none" xmlns="http://www.w3.org/2000/svg">
<path opacity="0.2" d="M23.9586 2.69H23.9586H36.2597C36.5383 2.69 36.8054 2.80065 37.0024 2.99761C37.1993 3.19456 37.31 3.46169 37.31 3.74023V16.0413V16.0414C37.31 16.3199 37.1995 16.587 37.0027 16.784C37.0026 16.7841 37.0025 16.7841 37.0025 16.7842L16.7839 37.0024L17.3602 37.5787L16.7839 37.0024C16.6864 37.0999 16.5706 37.1773 16.4432 37.2301C16.3157 37.2828 16.1792 37.31 16.0412 37.31C15.9033 37.31 15.7668 37.2828 15.6393 37.2301C15.5119 37.1773 15.3961 37.0999 15.2986 37.0024L15.2986 37.0024L2.99725 24.7017C2.89973 24.6041 2.82236 24.4884 2.76958 24.3609C2.7168 24.2335 2.68963 24.0969 2.68963 23.959C2.68963 23.8211 2.7168 23.6845 2.76958 23.5571C2.82236 23.4297 2.89973 23.3139 2.99726 23.2164L2.42097 22.6401L2.99727 23.2164L23.216 2.99762L23.2161 2.99758C23.3136 2.90006 23.4293 2.82271 23.5567 2.76993C23.6841 2.71716 23.8207 2.68999 23.9586 2.69Z" stroke="url(#paint0_linear)" stroke-width="1.63"/>
<path d="M14.7905 21.4293C15.1299 21.7687 15.5259 22.002 15.9784 22.1293C16.431 22.2424 16.8871 22.2389 17.3467 22.1187C17.8063 21.9985 18.2164 21.7581 18.5771 21.3974C18.9448 21.0298 19.1852 20.6196 19.2983 20.1671C19.4185 19.7075 19.4185 19.2549 19.2983 18.8094C19.171 18.3569 18.9377 17.9609 18.5983 17.6215C18.2447 17.2679 17.8452 17.0311 17.3997 16.9109C16.9543 16.7906 16.5052 16.7942 16.0527 16.9215C15.6001 17.0346 15.19 17.275 14.8223 17.6427C14.4617 18.0033 14.2213 18.4135 14.1011 18.8731C13.9738 19.3256 13.9667 19.7782 14.0799 20.2307C14.2001 20.6762 14.437 21.0757 14.7905 21.4293ZM15.936 20.2838C15.7875 20.1353 15.685 19.9691 15.6284 19.7852C15.5719 19.6014 15.5648 19.4176 15.6072 19.2337C15.6426 19.0428 15.738 18.8695 15.8936 18.714C16.0492 18.5584 16.2189 18.4665 16.4027 18.4382C16.5866 18.3958 16.7704 18.4029 16.9543 18.4594C17.1381 18.516 17.3043 18.6185 17.4528 18.767C17.5942 18.9084 17.6967 19.0746 17.7604 19.2655C17.8169 19.4494 17.824 19.6332 17.7816 19.8171C17.7462 19.9938 17.6508 20.16 17.4952 20.3156C17.3396 20.4711 17.1699 20.5701 16.9861 20.6126C16.8022 20.655 16.6184 20.6479 16.4345 20.5913C16.2436 20.5277 16.0774 20.4252 15.936 20.2838ZM23.6258 20.6126C23.9723 20.959 24.3683 21.1924 24.8137 21.3126C25.2663 21.4257 25.7224 21.4222 26.182 21.302C26.6416 21.1818 27.0517 20.9414 27.4124 20.5807C27.7801 20.213 28.0205 19.8029 28.1336 19.3504C28.2538 18.8908 28.2538 18.4382 28.1336 17.9927C28.0134 17.5473 27.7801 17.1513 27.4336 16.8048C27.0871 16.4583 26.6911 16.225 26.2456 16.1048C25.7931 15.9775 25.3405 15.9775 24.888 16.1048C24.4354 16.2179 24.0253 16.4583 23.6576 16.826C23.297 17.1866 23.0566 17.5968 22.9364 18.0564C22.8091 18.5089 22.8056 18.965 22.9258 19.4246C23.046 19.8701 23.2793 20.2661 23.6258 20.6126ZM24.7713 19.467C24.6228 19.3186 24.5203 19.1524 24.4637 18.9685C24.4072 18.7847 24.4001 18.6008 24.4425 18.417C24.4849 18.2331 24.5839 18.0634 24.7395 17.9079C24.8951 17.7523 25.0612 17.6569 25.238 17.6215C25.4219 17.5791 25.6057 17.5861 25.7895 17.6427C25.9734 17.6993 26.1396 17.8018 26.2881 17.9503C26.4295 18.0917 26.532 18.2579 26.5957 18.4488C26.6522 18.6327 26.6593 18.8165 26.6169 19.0004C26.5815 19.1771 26.486 19.3433 26.3305 19.4989C26.1749 19.6544 26.0052 19.7534 25.8214 19.7959C25.6375 19.8383 25.4537 19.8312 25.2698 19.7746C25.0789 19.711 24.9127 19.6085 24.7713 19.467ZM19.415 13.3895L21.4302 26.2235L22.8197 24.834L20.8044 12L19.415 13.3895Z" fill="url(#paint1_linear)"/>
<circle opacity="0.3" cx="31.5" cy="8.5" r="1.75" stroke="url(#paint2_linear)" stroke-width="1.5"/>
<defs>
<linearGradient id="paint0_linear" x1="1.85642" y1="20.0005" x2="38.1392" y2="20.0005" gradientUnits="userSpaceOnUse">
<stop stop-color="#0A134D"/>
<stop offset="1" stop-color="#073871"/>
</linearGradient>
<linearGradient id="paint1_linear" x1="13.9929" y1="19.1119" x2="28.2294" y2="19.1119" gradientUnits="userSpaceOnUse">
<stop stop-color="#0A134D"/>
<stop offset="1" stop-color="#073871"/>
</linearGradient>
<linearGradient id="paint2_linear" x1="28.9975" y1="8.50007" x2="34.002" y2="8.50007" gradientUnits="userSpaceOnUse">
<stop stop-color="#0A134D"/>
<stop offset="1" stop-color="#073871"/>
</linearGradient>
</defs>
</svg>
