<svg width="40" height="40" viewBox="0 0 40 40" fill="none" xmlns="http://www.w3.org/2000/svg">
<path d="M25.6518 15.3576L25.4918 15.3105L24.5413 17.3435C24.9073 17.4163 25.2641 17.5299 25.6048 17.6823C26.5491 18.1254 27.3194 18.8696 27.7947 19.7981C28.27 20.7266 28.4233 21.7866 28.2307 22.8117L28.7954 21.5976C29.0476 20.3556 28.8747 19.0649 28.3045 17.9331C27.7344 16.8012 26.8 15.8941 25.6518 15.3576Z" fill="#232A44"/>
<path d="M27.1765 12.1669C27.128 12.1439 27.0776 12.125 27.0259 12.1105L26.0847 14.1434C26.4508 14.2162 26.8075 14.3299 27.1482 14.4822C28.0908 14.9268 28.8591 15.6717 29.3326 16.6C29.8061 17.5284 29.9581 18.5876 29.7647 19.6116L30.3294 18.4069C30.5809 17.1639 30.4067 15.8723 29.8347 14.7404C29.2628 13.6084 28.3264 12.7019 27.1765 12.1669Z" fill="#232A44"/>
<path d="M34.7906 10.8868L33.3789 5.91743C33.3603 5.8531 33.3283 5.79346 33.2849 5.74251C33.2414 5.69155 33.1876 5.65045 33.1271 5.62194C33.0665 5.59343 33.0005 5.57818 32.9336 5.5772C32.8666 5.57622 32.8003 5.58953 32.7389 5.61625L28.033 7.7339C27.9932 7.75317 27.9597 7.78325 27.9362 7.8207C27.9127 7.85815 27.9003 7.90146 27.9003 7.94566C27.9003 7.98987 27.9127 8.03317 27.9362 8.07063C27.9597 8.10808 27.9932 8.13816 28.033 8.15743L32.2401 10.1151C32.7491 11.0621 32.9185 12.1549 32.7201 13.2115L33.7648 10.8586L34.433 11.1692C34.4745 11.2008 34.5254 11.2176 34.5776 11.2172C34.6297 11.2167 34.6803 11.1989 34.7212 11.1666C34.7621 11.1342 34.7912 11.0892 34.8038 11.0386C34.8163 10.9879 34.8117 10.9346 34.7906 10.8868Z" fill="#232A44"/>
<path d="M26.9434 6.72641L24.8122 2.25124C24.7839 2.19325 24.7438 2.14212 24.6945 2.1013C24.6452 2.06048 24.5879 2.03092 24.5265 2.0146C24.4651 1.99829 24.4009 1.99561 24.3384 2.00674C24.2758 2.01786 24.2164 2.04255 24.164 2.07911L20.1324 4.86931C20.0959 4.8916 20.0667 4.92454 20.0487 4.96388C20.0307 5.00322 20.0246 5.04717 20.0313 5.09005C20.038 5.13294 20.0571 5.1728 20.0862 5.2045C20.1153 5.2362 20.153 5.25828 20.1946 5.2679L20.8694 5.45815L19.0313 12.4517C19.0004 12.5671 18.9923 12.6876 19.0073 12.8063C19.0224 12.9249 19.0603 13.0393 19.1189 13.1429C19.1775 13.2465 19.2557 13.3372 19.3489 13.4098C19.442 13.4825 19.5484 13.5355 19.6617 13.566L21.7219 14.1277L21.6775 14.2001C21.4254 14.6341 21.2228 15.0961 21.0737 15.5771C20.9381 16.111 20.9303 16.6702 21.0509 17.2078C21.1714 17.7454 21.4168 18.2456 21.7663 18.6663L22.0683 18.3945C21.8342 18.0205 21.6842 17.5983 21.6289 17.1582C21.5736 16.7181 21.6145 16.271 21.7486 15.8489C21.9449 15.421 22.1829 15.0143 22.459 14.635L22.5833 14.3904L23.9242 14.7527L22.015 22H22.903L26.3573 8.83718L25.4693 8.60164L25.9222 6.85324L26.5971 7.03442C26.6371 7.08127 26.6938 7.10998 26.7546 7.11423C26.8154 7.11847 26.8753 7.09791 26.9212 7.05707C26.9672 7.01623 26.9953 6.95844 26.9995 6.89643C27.0036 6.83442 26.9835 6.77327 26.9434 6.72641Z" fill="#232A44"/>
<path d="M16 20.9906L13.6162 6.38414C13.595 6.26197 13.5298 6.15381 13.4349 6.08325C13.3401 6.01268 13.2232 5.98543 13.1097 6.00745L11.3633 6.32764C11.2495 6.35063 11.1485 6.42051 11.0817 6.52248C11.0149 6.62445 10.9875 6.75048 11.0053 6.87385L13.3106 21L16 20.9906Z" fill="#232A44"/>
<path d="M10.331 9.28699L9.41174 9.48877L12.2126 22.2491L13.1319 22.0473L10.331 9.28699Z" fill="#232A44"/>
<path d="M34.5546 22.054C34.1585 21.5822 33.5642 21.3115 32.924 21.3115H27.1464L24.0134 14.5007C23.8192 14.0785 23.3011 13.8855 22.8563 14.07C22.4114 14.2544 22.2083 14.7463 22.4026 15.1687L25.2283 21.3115H14.7717L17.5974 15.1687C17.7917 14.7463 17.5886 14.2545 17.1437 14.07C16.6989 13.8855 16.1808 14.0783 15.9866 14.5007L12.8536 21.3115H7.07604C6.43584 21.3115 5.84153 21.5821 5.44537 22.054C5.05649 22.5173 4.91299 23.1129 5.05168 23.6882L8.13705 36.4827C8.3525 37.3761 9.18494 38 10.1614 38H29.8386C30.8151 38 31.6475 37.3761 31.8629 36.4827L34.9483 23.6881C35.087 23.1128 34.9435 22.5173 34.5546 22.054ZM29.8386 36.3311H10.1614C10.0122 36.3311 9.88145 36.2382 9.85057 36.1101L6.7652 23.3157C6.741 23.2153 6.7816 23.1398 6.82004 23.0941C6.85567 23.0516 6.93635 22.9804 7.07604 22.9804H12.086L11.8558 23.4809C11.6615 23.9032 11.8646 24.395 12.3095 24.5795C12.4239 24.627 12.5432 24.6495 12.6607 24.6495C12.9995 24.6495 13.3224 24.4624 13.4666 24.1488L14.0041 22.9805H25.996L26.5335 24.1488C26.6778 24.4625 27.0006 24.6495 27.3394 24.6495C27.4568 24.6495 27.5762 24.627 27.6907 24.5795C28.1355 24.3951 28.3386 23.9032 28.1444 23.4809L27.9141 22.9804H32.9241C33.0638 22.9804 33.1444 23.0516 33.1801 23.0941C33.2185 23.1399 33.2591 23.2154 33.2349 23.3157L30.1495 36.1102C30.1186 36.2382 29.9878 36.3311 29.8386 36.3311Z" fill="#CED7E3"/>
<path d="M29.0132 9.0875L28.866 9L28 10.89C28.3368 10.9577 28.6651 11.0633 28.9786 11.205C29.8508 11.6195 30.5612 12.3162 30.9973 13.1847C31.4334 14.0533 31.5701 15.044 31.386 16L31.8969 14.88C32.1275 13.7277 31.9687 12.5304 31.4458 11.4802C30.923 10.4299 30.0663 9.58735 29.0132 9.0875Z" fill="#232A44"/>
<line x1="18.75" y1="27.75" x2="18.75" y2="32.25" stroke="#CED7E3" stroke-width="1.5" stroke-linecap="round"/>
<line x1="22.75" y1="27.75" x2="22.75" y2="32.25" stroke="#CED7E3" stroke-width="1.5" stroke-linecap="round"/>
</svg>
