<svg width="40" height="40" viewBox="0 0 40 40" fill="none" xmlns="http://www.w3.org/2000/svg">
<path opacity="0.2" d="M20.1576 0.843255C20.1581 0.843448 20.1586 0.843641 20.1592 0.843836L35.5696 6.67482C35.5698 6.67491 35.5701 6.67501 35.5703 6.67511C35.7401 6.74023 35.8517 6.90279 35.8517 7.08333V20.2983C35.8517 27.7164 31.992 32.403 28.0615 35.2728C26.0915 36.7113 24.1116 37.6852 22.6121 38.3018C21.8635 38.6097 21.2377 38.8272 20.797 38.9682C20.5768 39.0387 20.4031 39.0899 20.2837 39.1237C20.1709 39.1557 20.1083 39.1716 20.1017 39.1732C20.0687 39.181 20.0353 39.185 20 39.185C19.9648 39.185 19.9313 39.181 19.8983 39.1732C19.8912 39.1714 19.8287 39.1555 19.7164 39.1237C19.597 39.0899 19.4233 39.0387 19.2031 38.9682C18.7624 38.8272 18.1366 38.6097 17.388 38.3018C15.8885 37.6852 13.9086 36.7113 11.9386 35.2728C8.00808 32.403 4.14837 27.7164 4.14837 20.2983V7.08333C4.14837 6.90319 4.25952 6.74067 4.43082 6.67533C4.43098 6.67527 4.43114 6.67521 4.4313 6.67515L19.8426 0.843836C19.8431 0.843641 19.8436 0.843448 19.8442 0.843255C19.9465 0.805582 20.0552 0.805582 20.1576 0.843255Z" stroke="url(#paint0_linear)" stroke-width="1.63"/>
<path opacity="0.3" d="M13.7778 10.6438L13.933 10.5596C13.9532 10.5494 13.9701 10.5341 13.9819 10.5153C13.9938 10.4965 14 10.4749 14 10.4528C14 10.4308 13.9938 10.4092 13.9819 10.3904C13.9701 10.3715 13.9532 10.3562 13.933 10.3461L13.0728 9.98219L12.8989 9.09504C12.8947 9.07372 12.8844 9.05397 12.8693 9.03797C12.8541 9.02198 12.8346 9.01037 12.8131 9.00445C12.7915 8.99853 12.7687 8.99852 12.7471 9.00442C12.7255 9.01033 12.7061 9.02192 12.6909 9.0379L12.0698 9.70853L11.1382 9.59425C11.1153 9.59173 11.0921 9.59545 11.0712 9.60498C11.0504 9.61451 11.0326 9.62948 11.0201 9.64822C11.0075 9.66695 11.0006 9.68871 11 9.71104C10.9995 9.73338 11.0054 9.75542 11.0171 9.77469L11.486 10.5536L11.0854 11.3716C11.0766 11.3915 11.0736 11.4135 11.0767 11.435C11.0797 11.4565 11.0887 11.4768 11.1027 11.4938C11.1167 11.5107 11.1352 11.5237 11.1562 11.5313C11.1773 11.5389 11.2 11.5409 11.2221 11.537L12.135 11.3475L12.8151 11.967C12.8316 11.9825 12.8523 11.9931 12.8748 11.9976C12.8974 12.0021 12.9207 12.0003 12.9422 11.9924C12.9637 11.9845 12.9824 11.9709 12.9962 11.9531C13.01 11.9353 13.0183 11.914 13.0201 11.8918L13.1163 10.9896L13.4765 10.7972" fill="url(#paint1_linear)"/>
<path opacity="0.3" d="M17.7714 8.30818L17.8996 8.18666C17.9165 8.17163 17.9288 8.15245 17.9354 8.13121C17.9419 8.10996 17.9423 8.08748 17.9366 8.0662C17.9309 8.04492 17.9193 8.02567 17.903 8.01054C17.8868 7.99542 17.8664 7.985 17.8443 7.98042L16.9193 7.85156L16.5217 7.03965C16.5121 7.02016 16.497 7.00374 16.4782 6.99221C16.4594 6.98069 16.4377 6.97451 16.4153 6.97437C16.3929 6.97423 16.3709 6.98013 16.3515 6.99142C16.3322 7.00271 16.3164 7.01894 16.3059 7.0383L15.8796 7.84683L14.9501 7.97756C14.9274 7.98106 14.9059 7.99065 14.8882 8.00526C14.8705 8.01987 14.8573 8.03892 14.85 8.06027C14.8427 8.08162 14.8416 8.10443 14.8469 8.12614C14.8522 8.14785 14.8636 8.16761 14.8799 8.18319L15.5344 8.81418L15.3592 9.70798C15.3559 9.72955 15.3586 9.7515 15.3671 9.7715C15.3756 9.79149 15.3896 9.80879 15.4075 9.82154C15.4254 9.8343 15.4467 9.84204 15.4689 9.84395C15.4912 9.84586 15.5136 9.84186 15.5339 9.83238L16.3668 9.41308L17.184 9.83546C17.204 9.84613 17.2267 9.85101 17.2496 9.84953C17.2725 9.84804 17.2946 9.84026 17.3134 9.82708C17.3321 9.8139 17.3466 9.79588 17.3553 9.77511C17.3641 9.75434 17.3665 9.73169 17.3625 9.70979L17.222 8.81343L17.5201 8.53429" fill="url(#paint2_linear)"/>
<path opacity="0.3" d="M21.4233 6.60372L21.5482 6.48527C21.5647 6.47062 21.5767 6.45193 21.5831 6.43122C21.5895 6.41052 21.5899 6.3886 21.5844 6.36786C21.5788 6.34712 21.5675 6.32836 21.5516 6.31361C21.5357 6.29887 21.5159 6.28871 21.4944 6.28424L20.5927 6.15865L20.2052 5.36725C20.1958 5.34826 20.1811 5.33225 20.1628 5.32102C20.1445 5.30978 20.1233 5.30376 20.1015 5.30363C20.0797 5.30349 20.0582 5.30925 20.0393 5.32025C20.0205 5.33125 20.0051 5.34707 19.9949 5.36595L19.5793 6.15403L18.6734 6.28146C18.6511 6.28487 18.6302 6.29422 18.613 6.30846C18.5957 6.3227 18.5828 6.34127 18.5757 6.36208C18.5686 6.38289 18.5676 6.40512 18.5727 6.42628C18.5779 6.44745 18.589 6.4667 18.6048 6.4819L19.2428 7.09694L19.072 7.96814C19.0688 7.98917 19.0715 8.01057 19.0798 8.03005C19.0881 8.04954 19.1017 8.0664 19.1192 8.07883C19.1366 8.09127 19.1573 8.09881 19.179 8.10067C19.2007 8.10253 19.2226 8.09863 19.2424 8.08939L20.0542 7.68069L20.8508 8.0924C20.8702 8.1028 20.8924 8.10756 20.9147 8.10611C20.937 8.10466 20.9586 8.09708 20.9768 8.08423C20.9951 8.07139 21.0093 8.05382 21.0178 8.03357C21.0262 8.01333 21.0287 7.99125 21.0248 7.96991L20.8878 7.0962L21.1784 6.82411" fill="url(#paint3_linear)"/>
<path opacity="0.3" d="M25.03 8.60372L25.1549 8.48527C25.1714 8.47062 25.1834 8.45193 25.1898 8.43122C25.1962 8.41052 25.1966 8.3886 25.191 8.36786C25.1855 8.34712 25.1742 8.32836 25.1583 8.31361C25.1424 8.29887 25.1226 8.28871 25.1011 8.28424L24.1994 8.15865L23.8119 7.36725C23.8025 7.34826 23.7878 7.33225 23.7695 7.32102C23.7512 7.30978 23.73 7.30376 23.7082 7.30363C23.6864 7.30349 23.6648 7.30925 23.646 7.32025C23.6272 7.33125 23.6118 7.34707 23.6015 7.36595L23.186 8.15403L22.28 8.28146C22.2578 8.28487 22.2369 8.29422 22.2197 8.30846C22.2024 8.3227 22.1895 8.34127 22.1824 8.36208C22.1753 8.38289 22.1743 8.40512 22.1794 8.42628C22.1846 8.44745 22.1957 8.4667 22.2115 8.4819L22.8495 9.09694L22.6787 9.96814C22.6755 9.98917 22.6782 10.0106 22.6865 10.0301C22.6948 10.0495 22.7084 10.0664 22.7258 10.0788C22.7433 10.0913 22.764 10.0988 22.7857 10.1007C22.8074 10.1025 22.8293 10.0986 22.8491 10.0894L23.6609 9.68069L24.4574 10.0924C24.4769 10.1028 24.4991 10.1076 24.5214 10.1061C24.5437 10.1047 24.5653 10.0971 24.5835 10.0842C24.6018 10.0714 24.616 10.0538 24.6244 10.0336C24.6329 10.0133 24.6354 9.99125 24.6314 9.96991L24.4945 9.0962L24.7851 8.82411" fill="url(#paint4_linear)"/>
<path opacity="0.3" d="M29.03 10.6037L29.1549 10.4853C29.1714 10.4706 29.1834 10.4519 29.1898 10.4312C29.1962 10.4105 29.1966 10.3886 29.191 10.3679C29.1855 10.3471 29.1742 10.3284 29.1583 10.3136C29.1424 10.2989 29.1226 10.2887 29.1011 10.2842L28.1994 10.1586L27.8119 9.36725C27.8025 9.34826 27.7878 9.33225 27.7695 9.32102C27.7512 9.30978 27.73 9.30376 27.7082 9.30363C27.6864 9.30349 27.6648 9.30925 27.646 9.32025C27.6272 9.33125 27.6118 9.34707 27.6015 9.36595L27.186 10.154L26.28 10.2815C26.2578 10.2849 26.2369 10.2942 26.2197 10.3085C26.2024 10.3227 26.1895 10.3413 26.1824 10.3621C26.1753 10.3829 26.1743 10.4051 26.1794 10.4263C26.1846 10.4474 26.1957 10.4667 26.2115 10.4819L26.8495 11.0969L26.6787 11.9681C26.6755 11.9892 26.6782 12.0106 26.6865 12.0301C26.6948 12.0495 26.7084 12.0664 26.7258 12.0788C26.7433 12.0913 26.764 12.0988 26.7857 12.1007C26.8074 12.1025 26.8293 12.0986 26.8491 12.0894L27.6609 11.6807L28.4574 12.0924C28.4769 12.1028 28.4991 12.1076 28.5214 12.1061C28.5437 12.1047 28.5653 12.0971 28.5835 12.0842C28.6018 12.0714 28.616 12.0538 28.6244 12.0336C28.6329 12.0133 28.6354 11.9912 28.6314 11.9699L28.4945 11.0962L28.7851 10.8241" fill="url(#paint5_linear)"/>
<path d="M23.9434 16.7264L21.8122 12.2512C21.7839 12.1932 21.7438 12.1421 21.6945 12.1013C21.6452 12.0605 21.5879 12.0309 21.5265 12.0146C21.4651 11.9983 21.4009 11.9956 21.3384 12.0067C21.2758 12.0179 21.2164 12.0425 21.164 12.0791L17.1324 14.8693C17.0959 14.8916 17.0667 14.9245 17.0487 14.9639C17.0307 15.0032 17.0246 15.0472 17.0313 15.0901C17.038 15.1329 17.0571 15.1728 17.0862 15.2045C17.1153 15.2362 17.153 15.2583 17.1946 15.2679L17.8694 15.4581L16.0313 22.4517C16.0004 22.5671 15.9923 22.6876 16.0073 22.8063C16.0224 22.9249 16.0603 23.0393 16.1189 23.1429C16.1775 23.2465 16.2557 23.3372 16.3489 23.4098C16.442 23.4825 16.5484 23.5355 16.6617 23.566L18.7219 24.1277L18.6775 24.2001C18.4254 24.6341 18.2228 25.0961 18.0737 25.5771C17.9381 26.111 17.9303 26.6702 18.0509 27.2078C18.1714 27.7454 18.4168 28.2456 18.7663 28.6663L19.0683 28.3945C18.8342 28.0205 18.6842 27.5983 18.6289 27.1582C18.5736 26.7181 18.6145 26.271 18.7486 25.8489C18.9449 25.421 19.1829 25.0143 19.459 24.635L19.5833 24.3904L20.9242 24.7527L19.015 32H19.903L23.3573 18.8372L22.4693 18.6016L22.9222 16.8532L23.5971 17.0344C23.6371 17.0813 23.6938 17.11 23.7546 17.1142C23.8154 17.1185 23.8753 17.0979 23.9212 17.0571C23.9672 17.0162 23.9953 16.9584 23.9995 16.8964C24.0036 16.8344 23.9835 16.7733 23.9434 16.7264V16.7264Z" fill="url(#paint6_linear)"/>
<defs>
<linearGradient id="paint0_linear" x1="3.31662" y1="20.0005" x2="36.6798" y2="20.0005" gradientUnits="userSpaceOnUse">
<stop stop-color="#0A134D"/>
<stop offset="1" stop-color="#073871"/>
</linearGradient>
<linearGradient id="paint1_linear" x1="10.9985" y1="10.5" x2="14.0012" y2="10.5" gradientUnits="userSpaceOnUse">
<stop stop-color="#0A134D"/>
<stop offset="1" stop-color="#073871"/>
</linearGradient>
<linearGradient id="paint2_linear" x1="15.0496" y1="8.88865" x2="17.95" y2="8.1115" gradientUnits="userSpaceOnUse">
<stop stop-color="#0A134D"/>
<stop offset="1" stop-color="#073871"/>
</linearGradient>
<linearGradient id="paint3_linear" x1="18.7703" y1="7.16952" x2="21.5974" y2="6.41201" gradientUnits="userSpaceOnUse">
<stop stop-color="#0A134D"/>
<stop offset="1" stop-color="#073871"/>
</linearGradient>
<linearGradient id="paint4_linear" x1="22.377" y1="9.16952" x2="25.2041" y2="8.41201" gradientUnits="userSpaceOnUse">
<stop stop-color="#0A134D"/>
<stop offset="1" stop-color="#073871"/>
</linearGradient>
<linearGradient id="paint5_linear" x1="26.377" y1="11.1695" x2="29.2041" y2="10.412" gradientUnits="userSpaceOnUse">
<stop stop-color="#0A134D"/>
<stop offset="1" stop-color="#073871"/>
</linearGradient>
<linearGradient id="paint6_linear" x1="15.996" y1="22.0003" x2="24.0031" y2="22.0003" gradientUnits="userSpaceOnUse">
<stop stop-color="#0A134D"/>
<stop offset="1" stop-color="#073871"/>
</linearGradient>
</defs>
</svg>
