<svg width="692" height="1328" viewBox="0 0 692 1328" fill="none" xmlns="http://www.w3.org/2000/svg">
<path d="M91.1302 294.283V318.543L-124.78 335.419C-123.003 360.734 -121.226 384.994 -118.561 410.308C-117.672 418.747 -116.784 428.239 -115.895 437.732L51.1468 370.227L59.1435 393.432L-108.787 491.526C-94.5706 593.839 -71.4691 709.865 -33.2627 828L62.6976 739.399L33.3764 724.632L133.779 484.143L153.327 493.636L90.2417 714.084L185.313 626.538L195.976 447.225H216.412L224.408 588.566L274.166 542.155L259.949 493.636L279.497 484.143L295.49 523.169L334.585 487.307L281.274 415.582L296.379 397.651L359.464 464.102L403.001 422.966L354.132 394.487L362.129 371.281L428.768 398.706L497.184 335.419L322.146 321.707V296.392L558.492 278.461L674 171.929C603.807 149.778 548.719 83.3274 530.948 0H335.474L280.385 132.902L260.838 123.409L296.379 0H280.385H227.962L219.077 169.819H197.753L188.868 0H119.563L154.215 122.354L135.556 131.847L81.3565 0H28.9338C26.2682 14.7669 21.8256 28.479 16.4945 41.1363L133.779 200.408L118.674 218.339L-7.49558 87.5465C-23.489 111.806 -43.0364 132.902 -65.2494 147.669L59.1435 220.448L51.1468 243.654L-121.226 174.038C-123.892 175.093 -127.446 176.148 -131 176.148C-131 209.901 -129.223 243.654 -128.334 275.297L91.1302 294.283ZM558.492 103.368L578.04 159.271L363.018 244.708L355.021 222.558L558.492 103.368ZM432.322 0L467.863 42.1911L297.267 219.394L282.162 201.462L432.322 0ZM165.766 253.147H245.733V377.61H224.408V275.297H187.091V377.61H165.766V253.147ZM131.114 413.473L-18.1578 614.935L-53.6987 572.744L116.897 395.541L131.114 413.473Z" fill="#F1F4F8"/>
<path d="M222.448 1275.25C227.784 1280.52 233.119 1285.8 237.566 1290.02C242.012 1294.24 245.57 1297.4 250.016 1301.62C252.684 1303.73 254.463 1305.84 257.131 1307.95C265.134 1314.28 272.249 1321.67 280.252 1328C287.367 1321.67 294.481 1315.34 302.485 1309.01C303.374 1307.95 304.264 1306.9 305.153 1306.9C311.378 1301.62 316.714 1296.35 322.939 1291.07C324.718 1288.96 327.386 1286.85 329.164 1284.74C333.611 1280.52 337.168 1276.3 341.614 1272.08C345.172 1267.86 348.729 1264.69 352.286 1260.47C354.065 1258.36 355.843 1256.25 357.622 1254.14C672.435 916.515 691.111 319.335 692 198L-23 859.541C29.4689 1010.42 106.838 1160.24 222.448 1275.25ZM240.234 769.858H261.577V820.502H272.249L297.149 769.858H316.714V778.299L290.035 831.053L318.493 885.918V894.358H297.149L271.359 843.714H260.688V894.358H239.345V769.858H240.234ZM279.363 1104.32L147.746 943.948L166.422 918.626L279.363 1055.79L393.194 916.515L411.869 941.837L279.363 1104.32Z" fill="#F1F4F8"/>
</svg>
