<svg width="692" height="716" viewBox="0 0 692 716" fill="none" xmlns="http://www.w3.org/2000/svg">
<path d="M91.1302 251.283V275.543L-124.78 292.419C-123.003 317.734 -121.226 341.994 -118.561 367.308C-117.672 375.746 -116.784 385.239 -115.895 394.732L51.1468 327.227L59.1435 350.432L-108.787 448.526C-94.5706 550.839 -71.4691 666.865 -33.2627 785L62.6976 696.399L33.3764 681.632L133.779 441.143L153.327 450.636L90.2417 671.084L185.313 583.538L195.976 404.225H216.412L224.408 545.566L274.166 499.155L259.949 450.636L279.497 441.143L295.49 480.169L334.585 444.307L281.274 372.582L296.379 354.651L359.464 421.102L403.001 379.966L354.132 351.487L362.129 328.281L428.768 355.706L497.184 292.419L322.146 278.707V253.392L558.492 235.461L674 128.929C603.807 106.778 548.719 40.3274 530.948 -43H335.474L280.385 89.9019L260.838 80.4089L296.379 -43H280.385H227.962L219.077 126.819H197.753L188.868 -43H119.563L154.215 79.3541L135.556 88.8471L81.3565 -43H28.9338C26.2682 -28.2331 21.8256 -14.521 16.4945 -1.8637L133.779 157.408L118.674 175.339L-7.49558 44.5465C-23.489 68.8064 -43.0364 89.9019 -65.2494 104.669L59.1435 177.448L51.1468 200.654L-121.226 131.038C-123.892 132.093 -127.446 133.148 -131 133.148C-131 166.901 -129.223 200.654 -128.334 232.297L91.1302 251.283ZM558.492 60.3682L578.04 116.271L363.018 201.708L355.021 179.558L558.492 60.3682ZM432.322 -43L467.863 -0.808918L297.267 176.394L282.162 158.462L432.322 -43ZM165.766 210.147H245.733V334.61H224.408V232.297H187.091V334.61H165.766V210.147ZM131.114 370.473L-18.1578 571.935L-53.6987 529.744L116.897 352.541L131.114 370.473Z" fill="#F1F4F8"/>
<path d="M222.448 1232.25C227.784 1237.52 233.119 1242.8 237.566 1247.02C242.012 1251.24 245.57 1254.4 250.016 1258.62C252.684 1260.73 254.463 1262.84 257.131 1264.95C265.134 1271.28 272.249 1278.67 280.252 1285C287.367 1278.67 294.481 1272.34 302.485 1266.01C303.374 1264.95 304.264 1263.9 305.153 1263.9C311.378 1258.62 316.714 1253.35 322.939 1248.07C324.718 1245.96 327.386 1243.85 329.164 1241.74C333.611 1237.52 337.168 1233.3 341.614 1229.08C345.172 1224.86 348.729 1221.69 352.286 1217.47C354.065 1215.36 355.843 1213.25 357.622 1211.14C672.435 873.515 691.111 276.335 692 155L-23 816.541C29.4689 967.418 106.838 1117.24 222.448 1232.25ZM240.234 726.858H261.577V777.502H272.249L297.149 726.858H316.714V735.299L290.035 788.053L318.493 842.918V851.358H297.149L271.359 800.714H260.688V851.358H239.345V726.858H240.234ZM279.363 1061.32L147.746 900.948L166.422 875.626L279.363 1012.79L393.194 873.515L411.869 898.837L279.363 1061.32Z" fill="#F1F4F8"/>
</svg>
