<svg width="94" height="39" viewBox="0 0 94 39" fill="none" xmlns="http://www.w3.org/2000/svg">
<path d="M20.6289 19.3948L16.0005 35.0123H18.125L19.3769 30.7356H26.9644L28.2164 35.0123H30.3409L25.7125 19.3948H20.6289ZM19.946 28.8264L22.1843 21.3041H24.157L26.3954 28.8264H19.946ZM3.02587 16.3783H0.901367V0.76084H13.9898V16.3783H11.8653V2.67006H2.98793V16.3783H3.02587ZM19.4149 16.3783H16.304V0.76084H18.4285V14.2781L26.2057 0.76084H29.3165V16.3783H27.192V2.86098L19.4149 16.3783ZM67.2161 19.3948L62.5877 35.0123H64.7122L65.9641 30.7356H73.5516L74.8036 35.0123H76.9281L72.2997 19.3948H67.2161ZM66.5332 28.8264L68.7715 21.3041H70.7443L72.9826 28.8264H66.5332ZM33.9829 11.6052H38.8009C41.76 11.6052 44.188 9.16142 44.188 6.18303C44.188 3.20464 41.798 0.76084 38.8009 0.76084H31.8584V16.3783H33.9829V11.6052ZM33.9829 2.78462H38.8009C40.546 2.78462 42.0635 4.38836 42.0635 6.18303C42.0635 7.93951 40.5081 9.58145 38.8009 9.58145H33.9829V2.78462ZM92.5583 33.0649V19.3948H83.036L80.5701 31.5375C80.3425 32.5303 79.7355 33.1031 79.3561 33.1031H78.6353V38.2198H80.5321L80.7598 35.0505H91.9513L92.1789 38.2198H94.0758V33.1031H92.5583V33.0649ZM90.4338 33.0649H81.9738C82.2773 32.6067 82.5428 32.0721 82.6566 31.4993L84.7053 21.2659H90.4338V33.0649ZM54.1656 0.722656C49.8787 0.722656 46.1608 4.23562 46.1608 8.58865C46.1608 12.9417 49.8787 16.4546 54.1656 16.4546C58.4905 16.4546 62.2083 12.9417 62.2083 8.58865C62.2083 4.23562 58.4905 0.722656 54.1656 0.722656ZM54.1656 14.3163C51.2444 14.3163 48.2473 11.9871 48.2473 8.55047C48.2473 5.64845 50.7892 2.8228 54.1656 2.8228C57.0109 2.8228 60.0838 5.07568 60.0838 8.55047C60.0838 11.4907 57.58 14.3163 54.1656 14.3163ZM43.619 30.7738L45.0985 32.263C43.619 33.9431 41.4186 35.0123 39.0285 35.0123C34.7416 35.0123 31.0237 31.4993 31.0237 27.1463C31.0237 22.7933 34.7416 19.2803 39.0285 19.2803C40.8875 19.2803 42.6326 19.7385 44.3018 20.8077V23.366H42.4429L42.1773 21.9914C41.2668 21.5332 40.2046 21.3804 39.0285 21.3804C36.1073 21.3804 33.1103 23.7097 33.1103 27.1463C33.1103 30.5829 36.1073 32.9121 39.0285 32.9121C40.9254 32.9121 42.5567 32.0721 43.619 30.7738ZM7.46455 26.0008L15.052 35.0123H12.1688L5.60562 27.1845L3.02587 29.5901V34.9741H0.901367V19.3948H3.02587V26.0389V27.2608L11.5618 19.2803H14.5589L7.46455 26.0008ZM54.0518 26.0008L61.6393 35.0123H58.756L52.1928 27.1845L49.6131 29.5901V34.9741H47.4886V19.3948H49.6131V26.0389V27.2608L58.149 19.3185H61.1461L54.0518 26.0008Z" fill="url(#paint0_linear)"/>
<defs>
<linearGradient id="paint0_linear" x1="0.911952" y1="19.4424" x2="94.0179" y2="19.4424" gradientUnits="userSpaceOnUse">
<stop stop-color="#0A134D"/>
<stop offset="1" stop-color="#073871"/>
</linearGradient>
</defs>
</svg>
