<svg width="39" height="53" viewBox="0 0 39 53" fill="none" xmlns="http://www.w3.org/2000/svg">
<path d="M38.8101 2.74928L36.9132 4.12392C36.8752 4.1621 36.8752 4.20029 36.8752 4.23847L37.5961 6.49135C37.634 6.64409 37.4822 6.79683 37.3305 6.68228L35.5095 5.34582C35.4336 5.26945 35.2819 5.26945 35.206 5.34582L33.385 6.68228C33.2712 6.79683 33.0815 6.64409 33.1194 6.49135L33.8402 4.23847C33.8402 4.20029 33.8402 4.1621 33.8023 4.12392L31.9054 2.74928C31.7537 2.63473 31.8296 2.4438 32.0192 2.4438H34.3714C34.4093 2.4438 34.4472 2.40562 34.4852 2.36743L35.206 0.114553C35.2439 -0.0381844 35.4716 -0.0381844 35.5474 0.114553L36.2303 2.25288C36.2682 2.36744 36.3821 2.4438 36.4959 2.4438H38.7342C38.8859 2.4438 38.9618 2.63473 38.8101 2.74928Z" fill="url(#paint0_linear)"/>
<path d="M9.48437 15.5792V16.4575L0.265562 17.0684C0.341437 17.9849 0.417312 18.8631 0.531125 19.7795C0.569062 20.085 0.607 20.4287 0.644937 20.7723L7.77718 18.3285L8.11862 19.1686L0.948437 22.7197C1.55544 26.4236 2.54181 30.6239 4.17312 34.9006L8.27037 31.6931L7.01844 31.1585L11.3054 22.4524L12.14 22.7961L9.44643 30.7766L13.5057 27.6073L13.961 21.116H14.8336L15.175 26.2327L17.2995 24.5526L16.6925 22.7961L17.5271 22.4524L18.21 23.8653L19.8792 22.567L17.603 19.9705L18.2479 19.3213L20.9415 21.7269L22.8004 20.2377L20.7139 19.2068L21.0553 18.3667L23.9006 19.3595L26.8218 17.0684L19.3481 16.572V15.6556L29.4395 15.0065L34.3714 11.1498C31.3743 10.348 29.0222 7.94235 28.2634 4.92578H19.9172L17.5651 9.73702L16.7304 9.39336L18.2479 4.92578H17.5651H15.3267L14.9474 11.0735H14.0369L13.6575 4.92578H10.6984L12.1779 9.35518L11.3812 9.69884L9.06706 4.92578H6.82875C6.71493 5.46036 6.52525 5.95676 6.29762 6.41497L11.3054 12.1808L10.6604 12.83L5.27331 8.09509C4.59044 8.97333 3.75581 9.73702 2.80737 10.2716L8.11862 12.9063L7.77718 13.7464L0.417312 11.2262C0.3035 11.2644 0.15175 11.3026 0 11.3026C0 12.5245 0.075875 13.7464 0.113812 14.8919L9.48437 15.5792ZM29.4395 8.66786L30.2741 10.6916L21.0932 13.7846L20.7518 12.9827L29.4395 8.66786ZM24.0524 4.92578L25.5699 6.45316L18.2859 12.8681L17.6409 12.219L24.0524 4.92578ZM12.6711 14.09H16.0855V18.5958H15.175V14.8919H13.5816V18.5958H12.6711V14.09ZM11.1916 19.8941L4.81806 27.1873L3.30056 25.6599L10.5846 19.2449L11.1916 19.8941Z" fill="url(#paint1_linear)"/>
<path d="M15.0992 51.0908C15.3268 51.2817 15.5544 51.4727 15.7441 51.6254C15.9338 51.7781 16.0855 51.8927 16.2752 52.0454C16.389 52.1218 16.4649 52.1982 16.5787 52.2745C16.9202 52.5036 17.2237 52.7709 17.5651 53C17.8686 52.7709 18.1721 52.5418 18.5135 52.3127C18.5515 52.2745 18.5894 52.2363 18.6273 52.2363C18.8929 52.0454 19.1205 51.8545 19.3861 51.6636C19.462 51.5872 19.5758 51.5108 19.6517 51.4345C19.8413 51.2817 19.9931 51.129 20.1828 50.9763C20.3345 50.8235 20.4863 50.709 20.638 50.5562C20.7139 50.4799 20.7898 50.4035 20.8657 50.3271C34.2955 38.1081 35.0922 16.4957 35.1302 12.1045L4.62842 36.0461C6.86673 41.5065 10.1673 46.9287 15.0992 51.0908ZM15.8579 32.8005H16.7684V34.6333H17.2237L18.2859 32.8005H19.1205V33.1059L17.9824 35.0152L19.1964 37.0007V37.3062H18.2859L17.1857 35.4734H16.7305V37.3062H15.82V32.8005H15.8579ZM17.5272 44.9049L11.9124 39.1009L12.7091 38.1845L17.5272 43.1484L22.3832 38.1081L23.1798 39.0245L17.5272 44.9049Z" fill="url(#paint2_linear)"/>
<defs>
<linearGradient id="paint0_linear" x1="31.8785" y1="3.36645" x2="38.8918" y2="3.36645" gradientUnits="userSpaceOnUse">
<stop stop-color="#FB1222"/>
<stop offset="1" stop-color="#FE6F12"/>
</linearGradient>
<linearGradient id="paint1_linear" x1="0" y1="19.8983" x2="34.4266" y2="19.8983" gradientUnits="userSpaceOnUse">
<stop stop-color="#FB1222"/>
<stop offset="1" stop-color="#FE6F12"/>
</linearGradient>
<linearGradient id="paint2_linear" x1="4.61309" y1="32.5528" x2="35.1421" y2="32.5528" gradientUnits="userSpaceOnUse">
<stop stop-color="#0A134D"/>
<stop offset="1" stop-color="#073871"/>
</linearGradient>
</defs>
</svg>
