<svg width="222" height="203" viewBox="0 0 222 203" fill="none" xmlns="http://www.w3.org/2000/svg">
<g opacity="0.88">
<path d="M106.81 0V94.2128C106.81 125.791 97.0367 151.643 77.4897 171.769C57.9428 192.243 32.1129 202.653 0 203V155.113C14.3112 151.99 25.1318 146.611 32.4619 138.977C39.792 131.69 43.9807 120.932 45.0278 106.705H0V0H106.81Z" fill="white"/>
<path d="M222 0V94.2128C222 125.791 212.227 151.643 192.68 171.769C173.133 192.243 147.303 202.653 115.19 203V155.113C129.501 151.99 140.322 146.611 147.652 138.977C154.982 131.69 159.171 120.932 160.218 106.705H115.19V0H222Z" fill="white"/>
</g>
</svg>
