<svg width="18" height="20" viewBox="0 0 18 20" fill="none" xmlns="http://www.w3.org/2000/svg">
<path opacity="0.4" d="M16.6435 7.48838C16.6435 7.55638 16.1105 14.2971 15.8061 17.134C15.6155 18.875 14.4932 19.9309 12.8097 19.9609C11.5162 19.9899 10.2499 19.9999 9.00407 19.9999C7.68139 19.9999 6.3879 19.9899 5.13233 19.9609C3.50525 19.9219 2.38196 18.845 2.20106 17.134C1.8879 14.2871 1.36467 7.55638 1.35494 7.48838C1.34522 7.28339 1.41135 7.0884 1.54556 6.9304C1.67783 6.78441 1.86845 6.69641 2.06879 6.69641H15.9393C16.1387 6.69641 16.3196 6.78441 16.4626 6.9304C16.5958 7.0884 16.6629 7.28339 16.6435 7.48838" fill="#222B45"/>
<path d="M18 3.97686C18 3.56588 17.6761 3.24389 17.2871 3.24389H14.3714C13.7781 3.24389 13.2627 2.8219 13.1304 2.22692L12.967 1.49795C12.7385 0.616978 11.9498 0 11.0647 0H6.93624C6.0415 0 5.26054 0.616978 5.02323 1.54595L4.87054 2.22792C4.7373 2.8219 4.22185 3.24389 3.62957 3.24389H0.713853C0.32386 3.24389 0 3.56588 0 3.97686V4.35685C0 4.75783 0.32386 5.08982 0.713853 5.08982H17.2871C17.6761 5.08982 18 4.75783 18 4.35685V3.97686Z" fill="#222B45"/>
</svg>
